<svg width="2400" height="1400" viewBox="0 0 2400 1400" xmlns="http://www.w3.org/2000/svg">
  <defs>
    <filter id="bloomSoft" x="-50%" y="-50%" width="200%" height="200%">
      <feGaussianBlur stdDeviation="6" />
    </filter>
    <filter id="bloomTight" x="-50%" y="-50%" width="200%" height="200%">
      <feGaussianBlur stdDeviation="1.1" />
    </filter>
  </defs>
  <g filter="url(#bloomSoft)">
    <path d="M515.11,683.23 Q524.82,673.91 529.64,669.04 Q534.46,664.16 539.00,659.48 Q543.53,654.80 547.47,651.59 L551.41,648.37" stroke="#f3e6c4" stroke-width="2.25" fill="none" stroke-linecap="round" opacity="0.057"/><path d="M519.72,732.22 Q517.85,723.48 517.01,719.10 Q516.16,714.72 515.71,710.15 Q515.25,705.58 514.92,699.74 Q514.60,693.90 514.86,688.57 Q515.11,683.23 514.67,676.87 L514.22,670.51" stroke="#f3e6c4" stroke-width="2.25" fill="none" stroke-linecap="round" opacity="0.061"/><path d="M502.07,774.99 Q506.18,765.34 508.05,760.87 Q509.92,756.40 512.14,749.92 Q514.36,743.45 517.04,737.83 Q519.72,732.22 523.34,726.16 Q526.95,720.09 529.16,715.45 Q531.36,710.81 534.03,706.17 Q536.70,701.54 539.58,695.36 L542.45,689.19" stroke="#f3e6c4" stroke-width="2.35" fill="none" stroke-linecap="round" opacity="0.064"/><path d="M498.26,843.79 Q499.85,811.64 500.96,793.32 Q502.07,774.99 501.97,761.17 Q501.87,747.35 502.61,727.66 L503.35,707.96" stroke="#f3e6c4" stroke-width="2.85" fill="none" stroke-linecap="round" opacity="0.067"/><path d="M618.45,973.33 Q588.88,944.23 578.00,932.96 Q567.13,921.70 553.23,907.44 Q539.34,893.19 529.41,881.17 Q519.48,869.14 508.87,856.47 L498.26,843.79" stroke="#f3e6c4" stroke-width="3.55" fill="none" stroke-linecap="round" opacity="0.070"/><path d="M722.11,761.98 Q730.33,760.77 733.37,760.26 Q736.42,759.75 739.66,759.11 Q742.90,758.46 745.86,757.58 Q748.82,756.70 752.57,755.61 Q756.32,754.53 760.16,753.70 L764.01,752.87" stroke="#f3e6c4" stroke-width="2.25" fill="none" stroke-linecap="round" opacity="0.057"/><path d="M744.31,748.38 Q745.47,741.58 746.09,738.46 Q746.72,735.34 747.59,731.93 Q748.46,728.52 749.49,725.39 Q750.53,722.27 751.55,718.75 Q752.57,715.24 753.84,711.84 Q755.11,708.44 755.73,705.82 L756.36,703.20" stroke="#f3e6c4" stroke-width="2.25" fill="none" stroke-linecap="round" opacity="0.057"/><path d="M715.64,766.11 Q722.11,761.98 726.23,759.70 Q730.35,757.41 733.89,755.01 Q737.43,752.61 740.87,750.49 Q744.31,748.38 748.14,745.59 Q751.97,742.81 755.00,740.97 Q758.02,739.12 761.69,736.74 Q765.35,734.35 769.08,731.76 L772.81,729.18" stroke="#f3e6c4" stroke-width="2.25" fill="none" stroke-linecap="round" opacity="0.061"/><path d="M704.71,767.37 Q715.64,766.11 722.61,765.43 Q729.57,764.75 736.20,764.62 Q742.82,764.49 749.12,763.86 Q755.43,763.24 760.90,763.01 Q766.38,762.79 772.68,762.20 Q778.98,761.62 786.84,761.46 L794.70,761.31" stroke="#f3e6c4" stroke-width="2.35" fill="none" stroke-linecap="round" opacity="0.064"/><path d="M729.93,740.76 Q740.69,736.00 745.75,733.57 Q750.82,731.15 756.96,729.01 Q763.10,726.86 768.48,724.50 Q773.86,722.15 779.38,719.63 Q784.89,717.12 789.81,714.76 Q794.73,712.41 799.51,710.47 Q804.28,708.54 810.20,706.11 L816.13,703.68" stroke="#f3e6c4" stroke-width="2.35" fill="none" stroke-linecap="round" opacity="0.064"/><path d="M654.66,820.30 Q679.36,796.84 692.04,782.11 Q704.71,767.37 717.32,754.07 Q729.93,740.76 739.89,728.06 L749.85,715.36" stroke="#f3e6c4" stroke-width="2.85" fill="none" stroke-linecap="round" opacity="0.067"/><path d="M602.70,934.23 Q619.48,894.18 628.73,876.57 Q637.98,858.97 646.32,839.63 Q654.66,820.30 659.17,805.55 Q663.68,790.79 668.56,772.61 L673.44,754.43" stroke="#f3e6c4" stroke-width="3.55" fill="none" stroke-linecap="round" opacity="0.070"/><path d="M535.02,778.43 Q519.88,766.05 512.60,759.26 Q505.33,752.47 498.21,744.17 Q491.09,735.88 485.01,729.22 Q478.93,722.56 472.87,715.02 Q466.80,707.48 459.27,699.74 Q451.75,692.01 445.15,684.59 L438.55,677.16" stroke="#f3e6c4" stroke-width="2.85" fill="none" stroke-linecap="round" opacity="0.067"/><path d="M543.76,658.39 Q535.92,627.63 531.61,612.60 Q527.30,597.57 523.63,586.26 Q519.97,574.94 515.22,564.08 Q510.47,553.22 504.83,542.32 L499.19,531.41" stroke="#f3e6c4" stroke-width="2.85" fill="none" stroke-linecap="round" opacity="0.067"/><path d="M771.89,524.74 Q775.87,526.86 778.18,527.95 Q780.49,529.04 782.99,530.00 Q785.49,530.96 787.48,531.66 Q789.48,532.35 791.93,532.95 Q794.39,533.55 796.67,534.24 Q798.96,534.94 800.81,535.69 L802.67,536.43" stroke="#f3e6c4" stroke-width="2.25" fill="none" stroke-linecap="round" opacity="0.054"/><path d="M748.71,521.88 Q754.23,522.76 757.53,523.31 Q760.84,523.86 763.59,524.23 Q766.34,524.59 769.11,524.67 Q771.89,524.74 774.43,524.80 Q776.98,524.86 780.41,525.22 Q783.85,525.58 787.23,525.88 Q790.61,526.18 793.75,526.80 L796.89,527.42" stroke="#f3e6c4" stroke-width="2.25" fill="none" stroke-linecap="round" opacity="0.057"/><path d="M705.98,543.72 Q711.90,539.92 715.32,537.96 Q718.75,535.99 722.50,534.05 Q726.25,532.12 730.34,530.11 Q734.43,528.10 738.09,526.33 Q741.76,524.56 745.24,523.22 Q748.71,521.88 752.72,520.15 Q756.73,518.42 761.02,516.94 L765.30,515.46" stroke="#f3e6c4" stroke-width="2.25" fill="none" stroke-linecap="round" opacity="0.061"/><path d="M732.98,531.61 Q738.31,522.21 740.75,518.62 Q743.20,515.03 745.78,511.28 Q748.36,507.53 751.02,503.01 Q753.69,498.48 755.30,494.94 L756.91,491.40" stroke="#f3e6c4" stroke-width="2.25" fill="none" stroke-linecap="round" opacity="0.057"/><path d="M717.49,541.13 Q726.18,535.20 729.58,533.40 Q732.98,531.61 736.31,529.44 Q739.65,527.28 743.57,524.37 Q747.49,521.47 751.85,518.47 Q756.22,515.47 760.65,512.39 Q765.08,509.31 768.43,506.92 L771.78,504.53" stroke="#f3e6c4" stroke-width="2.25" fill="none" stroke-linecap="round" opacity="0.061"/><path d="M664.22,549.86 Q677.29,547.37 685.28,546.70 Q693.26,546.03 699.62,544.87 Q705.98,543.72 711.74,542.43 Q717.49,541.13 724.13,539.90 Q730.76,538.68 738.53,537.02 Q746.30,535.36 752.78,534.61 L759.25,533.86" stroke="#f3e6c4" stroke-width="2.35" fill="none" stroke-linecap="round" opacity="0.064"/><path d="M547.92,629.56 Q578.71,605.17 591.76,596.45 Q604.81,587.74 621.88,577.73 Q638.94,567.72 651.58,558.79 L664.22,549.86" stroke="#f3e6c4" stroke-width="2.85" fill="none" stroke-linecap="round" opacity="0.067"/><path d="M540.20,812.44 Q535.02,778.43 534.43,760.06 Q533.84,741.69 534.60,727.15 Q535.35,712.60 536.81,698.74 Q538.27,684.87 541.01,671.63 Q543.76,658.39 545.84,643.98 L547.92,629.56" stroke="#f3e6c4" stroke-width="3.55" fill="none" stroke-linecap="round" opacity="0.070"/><path d="M414.14,679.31 Q399.21,670.89 389.86,664.94 Q380.51,658.99 372.28,654.35 Q364.06,649.71 356.69,644.67 Q349.32,639.64 341.61,633.47 L333.89,627.30" stroke="#f3e6c4" stroke-width="2.35" fill="none" stroke-linecap="round" opacity="0.064"/><path d="M401.33,634.94 Q396.26,625.42 394.16,621.04 Q392.06,616.67 389.45,611.22 Q386.83,605.78 384.64,600.64 Q382.45,595.51 380.88,590.90 Q379.30,586.30 377.71,582.05 L376.13,577.79" stroke="#f3e6c4" stroke-width="2.25" fill="none" stroke-linecap="round" opacity="0.061"/><path d="M409.13,586.37 Q415.95,578.76 419.86,573.77 Q423.78,568.78 426.34,564.56 Q428.89,560.34 431.73,555.47 L434.56,550.60" stroke="#f3e6c4" stroke-width="2.25" fill="none" stroke-linecap="round" opacity="0.057"/><path d="M398.51,605.97 Q404.77,595.54 406.95,590.96 Q409.13,586.37 411.25,581.69 Q413.37,577.01 415.11,572.14 Q416.85,567.28 418.23,561.93 Q419.60,556.59 420.43,552.06 L421.27,547.53" stroke="#f3e6c4" stroke-width="2.25" fill="none" stroke-linecap="round" opacity="0.061"/><path d="M404.67,665.64 Q402.26,647.79 401.79,641.37 Q401.33,634.94 401.11,628.06 Q400.88,621.18 399.70,613.58 Q398.51,605.97 398.29,599.17 Q398.07,592.37 397.88,583.11 L397.69,573.85" stroke="#f3e6c4" stroke-width="2.35" fill="none" stroke-linecap="round" opacity="0.064"/><path d="M472.66,759.43 Q460.72,743.88 455.76,735.95 Q450.79,728.02 444.31,719.10 Q437.82,710.18 432.02,702.86 Q426.22,695.55 420.18,687.43 Q414.14,679.31 409.41,672.48 Q404.67,665.64 399.66,656.27 L394.65,646.89" stroke="#f3e6c4" stroke-width="2.85" fill="none" stroke-linecap="round" opacity="0.067"/><path d="M517.70,776.50 Q472.66,759.43 447.08,752.60 Q421.49,745.78 395.54,737.37 Q369.58,728.96 347.14,722.58 L324.69,716.21" stroke="#f3e6c4" stroke-width="3.55" fill="none" stroke-linecap="round" opacity="0.070"/><path d="M637.21,1024.03 Q618.45,973.33 610.57,953.78 Q602.70,934.23 595.15,915.97 Q587.60,897.71 576.85,878.60 Q566.09,859.49 553.15,835.96 Q540.20,812.44 528.95,794.47 L517.70,776.50" stroke="#f3e6c4" stroke-width="4.56" fill="none" stroke-linecap="round" opacity="0.074"/><path d="M638.01,969.75 Q617.81,927.61 607.55,906.95 Q597.29,886.29 585.19,863.90 Q573.09,841.51 562.78,817.80 Q552.47,794.08 542.64,765.54 L532.81,736.99" stroke="#f3e6c4" stroke-width="4.56" fill="none" stroke-linecap="round" opacity="0.074"/><path d="M634.62,666.17 Q615.94,639.66 604.38,624.46 Q592.83,609.25 585.61,597.51 Q578.40,585.77 571.71,573.08 L565.02,560.40" stroke="#f3e6c4" stroke-width="2.85" fill="none" stroke-linecap="round" opacity="0.067"/><path d="M652.94,812.68 Q649.82,780.78 647.23,764.91 Q644.64,749.03 643.38,736.08 Q642.11,723.13 639.72,710.19 Q637.33,697.25 635.97,681.71 Q634.62,666.17 632.13,654.00 Q629.64,641.83 625.30,626.34 L620.96,610.86" stroke="#f3e6c4" stroke-width="3.55" fill="none" stroke-linecap="round" opacity="0.070"/><path d="M683.29,650.14 Q706.06,635.00 718.30,625.54 Q730.54,616.08 740.00,609.78 Q749.47,603.47 760.05,595.70 Q770.63,587.93 779.25,580.77 Q787.87,573.60 800.69,564.09 Q813.50,554.57 824.60,547.50 L835.69,540.43" stroke="#f3e6c4" stroke-width="3.55" fill="none" stroke-linecap="round" opacity="0.070"/><path d="M638.17,864.59 Q652.94,812.68 659.76,785.17 Q666.59,757.65 671.00,729.18 Q675.41,700.70 679.35,675.42 Q683.29,650.14 687.83,624.82 L692.38,599.51" stroke="#f3e6c4" stroke-width="4.56" fill="none" stroke-linecap="round" opacity="0.074"/><path d="M648.21,763.81 Q639.33,713.70 635.89,693.34 Q632.45,672.99 627.84,650.28 Q623.23,627.58 615.77,601.91 L608.31,576.25" stroke="#f3e6c4" stroke-width="3.55" fill="none" stroke-linecap="round" opacity="0.070"/><path d="M717.95,457.30 Q731.67,450.50 741.29,446.59 Q750.90,442.68 759.78,438.69 Q768.67,434.70 776.44,431.33 Q784.21,427.96 792.00,424.11 L799.80,420.25" stroke="#f3e6c4" stroke-width="2.35" fill="none" stroke-linecap="round" opacity="0.064"/><path d="M665.44,581.21 Q674.79,564.31 680.82,552.27 Q686.85,540.23 690.75,530.03 Q694.64,519.82 697.62,509.74 Q700.60,499.65 704.18,489.26 Q707.77,478.86 712.86,468.08 L717.95,457.30" stroke="#f3e6c4" stroke-width="2.85" fill="none" stroke-linecap="round" opacity="0.067"/><path d="M599.99,427.46 Q599.55,417.86 599.01,413.63 Q598.48,409.40 597.62,405.36 Q596.75,401.32 595.99,396.79 Q595.23,392.27 594.56,388.75 Q593.88,385.22 592.67,380.75 Q591.45,376.27 590.83,371.97 Q590.21,367.67 589.31,362.81 L588.40,357.95" stroke="#f3e6c4" stroke-width="2.25" fill="none" stroke-linecap="round" opacity="0.061"/><path d="M639.33,469.18 Q627.44,457.04 620.25,449.79 Q613.06,442.55 606.52,435.00 Q599.99,427.46 594.00,421.68 Q588.02,415.90 581.42,408.53 L574.83,401.15" stroke="#f3e6c4" stroke-width="2.35" fill="none" stroke-linecap="round" opacity="0.064"/><path d="M669.77,522.00 Q654.61,497.53 646.97,483.35 Q639.33,469.18 628.83,453.68 Q618.33,438.17 610.53,423.06 L602.73,407.95" stroke="#f3e6c4" stroke-width="2.85" fill="none" stroke-linecap="round" opacity="0.067"/><path d="M672.55,660.76 Q668.13,636.17 667.26,622.65 Q666.38,609.13 665.91,595.17 Q665.44,581.21 665.91,567.99 Q666.39,554.76 668.08,538.38 Q669.77,522.00 671.25,510.16 Q672.72,498.31 673.65,484.89 L674.59,471.46" stroke="#f3e6c4" stroke-width="3.55" fill="none" stroke-linecap="round" opacity="0.070"/><path d="M615.53,494.48 Q619.62,471.13 622.34,458.61 Q625.06,446.09 629.19,432.06 Q633.32,418.03 637.10,407.21 Q640.87,396.40 645.10,386.07 L649.33,375.75" stroke="#f3e6c4" stroke-width="2.85" fill="none" stroke-linecap="round" opacity="0.067"/><path d="M678.85,623.57 Q658.17,582.76 647.66,563.21 Q637.16,543.65 626.35,519.07 Q615.53,494.48 603.60,473.53 L591.67,452.58" stroke="#f3e6c4" stroke-width="3.55" fill="none" stroke-linecap="round" opacity="0.070"/><path d="M633.38,810.86 Q648.21,763.81 655.51,737.34 Q662.81,710.87 667.68,685.81 Q672.55,660.76 675.70,642.17 Q678.85,623.57 683.22,602.59 Q687.59,581.60 693.60,555.18 L699.61,528.76" stroke="#f3e6c4" stroke-width="4.56" fill="none" stroke-linecap="round" opacity="0.074"/><path d="M656.67,574.24 Q680.73,549.40 692.41,535.38 Q704.10,521.37 715.39,506.81 Q726.68,492.25 740.27,478.39 Q753.87,464.52 769.06,451.00 L784.26,437.48" stroke="#f3e6c4" stroke-width="3.55" fill="none" stroke-linecap="round" opacity="0.070"/><path d="M626.81,678.88 Q639.11,627.62 647.89,600.93 Q656.67,574.24 662.98,550.47 Q669.29,526.70 679.00,499.27 Q688.72,471.85 700.71,445.02 L712.71,418.20" stroke="#f3e6c4" stroke-width="4.56" fill="none" stroke-linecap="round" opacity="0.074"/><path d="M640.05,1072.20 Q637.21,1024.03 637.61,996.89 Q638.01,969.75 639.02,947.03 Q640.04,924.31 639.10,894.45 Q638.17,864.59 635.77,837.72 Q633.38,810.86 633.50,777.72 Q633.61,744.58 630.21,711.73 L626.81,678.88" stroke="#f3e6c4" stroke-width="6.0" fill="none" stroke-linecap="round" opacity="0.077"/><path d="M643.82,1018.26 Q642.03,970.29 639.75,943.87 Q637.48,917.45 637.17,894.51 Q636.86,871.56 637.72,848.57 Q638.58,825.58 639.85,799.03 Q641.11,772.48 640.86,747.51 Q640.62,722.55 639.43,694.56 Q638.24,666.57 638.99,641.75 L639.75,616.92" stroke="#f3e6c4" stroke-width="6.0" fill="none" stroke-linecap="round" opacity="0.077"/><path d="M1654.31,1294.41 Q1630.28,1200.27 1611.75,1143.25 Q1593.22,1086.23 1577.74,1030.67 Q1562.26,975.10 1542.33,920.97 L1522.39,866.83" stroke="#f3e6c4" stroke-width="6.0" fill="none" stroke-linecap="round" opacity="0.077"/><path d="M264.05,1031.03 Q258.39,1033.96 255.30,1035.56 Q252.20,1037.15 249.58,1038.78 Q246.97,1040.41 244.28,1041.86 Q241.59,1043.31 238.66,1044.79 Q235.73,1046.26 232.09,1047.73 Q228.45,1049.21 225.04,1051.00 L221.63,1052.79" stroke="#f3e6c4" stroke-width="2.25" fill="none" stroke-linecap="round" opacity="0.061"/><path d="M300.74,1035.57 Q285.86,1034.32 279.98,1033.54 Q274.10,1032.76 269.07,1031.90 Q264.05,1031.03 258.64,1029.42 Q253.24,1027.82 246.98,1026.06 Q240.73,1024.31 234.11,1023.29 L227.49,1022.27" stroke="#f3e6c4" stroke-width="2.35" fill="none" stroke-linecap="round" opacity="0.064"/><path d="M256.65,1054.77 Q254.13,1063.14 253.18,1066.91 Q252.22,1070.67 251.49,1074.15 Q250.76,1077.63 249.99,1081.74 Q249.21,1085.86 248.89,1089.66 Q248.57,1093.45 248.76,1098.49 L248.95,1103.52" stroke="#f3e6c4" stroke-width="2.25" fill="none" stroke-linecap="round" opacity="0.061"/><path d="M204.30,1087.18 Q200.63,1085.84 198.80,1085.30 Q196.97,1084.75 195.26,1084.30 Q193.55,1083.85 192.02,1083.27 Q190.49,1082.70 189.07,1082.19 Q187.66,1081.68 185.89,1080.94 Q184.13,1080.19 182.75,1079.49 Q181.37,1078.79 179.93,1078.22 L178.49,1077.66" stroke="#f3e6c4" stroke-width="2.25" fill="none" stroke-linecap="round" opacity="0.054"/><path d="M219.50,1085.45 Q215.23,1085.91 212.33,1086.30 Q209.44,1086.69 206.87,1086.93 Q204.30,1087.18 201.96,1087.23 Q199.62,1087.29 197.31,1087.38 Q195.00,1087.48 192.30,1087.80 Q189.59,1088.12 187.10,1088.33 L184.61,1088.54" stroke="#f3e6c4" stroke-width="2.25" fill="none" stroke-linecap="round" opacity="0.057"/><path d="M246.79,1067.35 Q240.53,1070.65 237.41,1072.80 Q234.29,1074.94 232.07,1076.64 Q229.84,1078.34 227.10,1080.26 Q224.36,1082.18 221.93,1083.82 Q219.50,1085.45 217.29,1087.18 Q215.08,1088.90 212.69,1090.60 Q210.30,1092.30 207.01,1094.40 L203.72,1096.50" stroke="#f3e6c4" stroke-width="2.25" fill="none" stroke-linecap="round" opacity="0.061"/><path d="M229.87,1157.34 Q236.19,1162.28 239.07,1164.33 Q241.94,1166.39 244.94,1168.14 Q247.94,1169.88 250.94,1171.23 Q253.95,1172.59 258.06,1174.08 L262.16,1175.57" stroke="#f3e6c4" stroke-width="2.25" fill="none" stroke-linecap="round" opacity="0.057"/><path d="M222.66,1104.69 Q222.63,1111.74 222.54,1114.97 Q222.44,1118.21 222.54,1122.47 Q222.65,1126.74 223.27,1130.98 Q223.89,1135.22 224.70,1138.81 Q225.52,1142.40 226.71,1146.17 Q227.91,1149.95 228.89,1153.65 L229.87,1157.34" stroke="#f3e6c4" stroke-width="2.25" fill="none" stroke-linecap="round" opacity="0.061"/><path d="M266.78,1044.60 Q256.65,1054.77 251.72,1061.06 Q246.79,1067.35 242.15,1073.37 Q237.51,1079.38 233.66,1085.84 Q229.82,1092.30 226.24,1098.50 L222.66,1104.69" stroke="#f3e6c4" stroke-width="2.35" fill="none" stroke-linecap="round" opacity="0.064"/><path d="M372.04,1017.74 Q355.73,1022.69 348.93,1024.24 Q342.13,1025.80 334.07,1027.52 Q326.01,1029.25 319.46,1030.64 Q312.91,1032.03 306.83,1033.80 Q300.74,1035.57 292.33,1037.93 Q283.92,1040.29 275.35,1042.45 L266.78,1044.60" stroke="#f3e6c4" stroke-width="2.85" fill="none" stroke-linecap="round" opacity="0.067"/><path d="M294.07,951.13 Q279.55,946.54 271.41,943.52 Q263.27,940.50 253.94,935.87 Q244.60,931.24 237.27,928.09 L229.95,924.94" stroke="#f3e6c4" stroke-width="2.35" fill="none" stroke-linecap="round" opacity="0.064"/><path d="M352.03,1010.83 Q341.02,999.02 336.12,993.79 Q331.21,988.56 327.07,983.67 Q322.93,978.78 317.50,973.74 Q312.08,968.71 307.52,964.51 Q302.96,960.31 298.52,955.72 Q294.07,951.13 289.59,947.07 Q285.11,943.01 279.17,938.16 L273.22,933.31" stroke="#f3e6c4" stroke-width="2.85" fill="none" stroke-linecap="round" opacity="0.067"/><path d="M312.33,993.93 Q290.81,994.29 280.34,993.58 Q269.87,992.87 258.90,991.52 Q247.93,990.18 237.71,987.94 L227.50,985.71" stroke="#f3e6c4" stroke-width="2.35" fill="none" stroke-linecap="round" opacity="0.064"/><path d="M274.25,964.10 Q266.89,961.01 263.44,959.68 Q259.98,958.35 257.31,957.56 Q254.64,956.78 251.26,955.38 Q247.89,953.99 244.74,952.72 Q241.59,951.46 238.42,950.31 Q235.25,949.15 231.94,948.09 Q228.63,947.02 224.95,946.15 L221.27,945.27" stroke="#f3e6c4" stroke-width="2.25" fill="none" stroke-linecap="round" opacity="0.061"/><path d="M287.61,977.71 Q281.37,970.54 277.81,967.32 Q274.25,964.10 269.93,959.84 Q265.62,955.59 260.68,951.58 Q255.73,947.57 251.97,943.93 Q248.20,940.29 243.77,936.03 Q239.34,931.77 236.28,928.32 L233.23,924.87" stroke="#f3e6c4" stroke-width="2.35" fill="none" stroke-linecap="round" opacity="0.064"/><path d="M334.69,1006.78 Q312.33,993.93 299.97,985.82 Q287.61,977.71 275.75,971.70 Q263.89,965.68 251.73,958.21 L239.56,950.74" stroke="#f3e6c4" stroke-width="2.85" fill="none" stroke-linecap="round" opacity="0.067"/><path d="M395.93,1028.39 Q372.04,1017.74 362.03,1014.28 Q352.03,1010.83 343.36,1008.80 Q334.69,1006.78 323.41,1005.05 Q312.14,1003.31 299.25,1002.65 Q286.36,1002.00 273.27,1002.33 Q260.17,1002.66 249.71,1001.82 L239.25,1000.97" stroke="#f3e6c4" stroke-width="3.55" fill="none" stroke-linecap="round" opacity="0.070"/><path d="M156.51,959.25 Q154.51,966.45 153.69,969.63 Q152.87,972.82 152.42,975.46 Q151.97,978.11 151.28,981.65 L150.60,985.19" stroke="#f3e6c4" stroke-width="2.25" fill="none" stroke-linecap="round" opacity="0.054"/><path d="M141.26,972.66 Q140.27,975.43 139.95,976.70 Q139.63,977.98 139.41,979.70 Q139.19,981.42 138.75,983.16 Q138.31,984.89 137.94,986.58 Q137.58,988.26 137.33,989.78 Q137.09,991.30 136.87,993.17 Q136.65,995.05 136.39,996.43 L136.12,997.81" stroke="#f3e6c4" stroke-width="2.25" fill="none" stroke-linecap="round" opacity="0.054"/><path d="M170.92,946.96 Q164.19,952.23 160.35,955.74 Q156.51,959.25 152.27,962.77 Q148.02,966.30 144.64,969.48 L141.26,972.66" stroke="#f3e6c4" stroke-width="2.25" fill="none" stroke-linecap="round" opacity="0.057"/><path d="M198.86,899.58 Q194.65,904.77 192.54,907.65 Q190.43,910.52 188.73,913.55 Q187.02,916.58 185.35,919.80 Q183.68,923.01 182.39,925.66 Q181.10,928.32 179.71,930.80 Q178.32,933.28 176.44,936.56 Q174.55,939.85 172.74,943.40 L170.92,946.96" stroke="#f3e6c4" stroke-width="2.25" fill="none" stroke-linecap="round" opacity="0.061"/><path d="M244.05,887.65 Q230.20,893.07 222.60,895.08 Q215.01,897.09 206.93,898.34 Q198.86,899.58 190.80,901.11 Q182.74,902.64 175.42,904.24 L168.10,905.83" stroke="#f3e6c4" stroke-width="2.35" fill="none" stroke-linecap="round" opacity="0.064"/><path d="M159.17,908.96 Q151.72,911.03 147.49,911.97 Q143.26,912.92 138.90,913.78 Q134.54,914.64 131.22,915.01 Q127.90,915.39 123.82,915.46 Q119.74,915.52 115.82,915.81 Q111.91,916.09 108.25,916.09 L104.60,916.09" stroke="#f3e6c4" stroke-width="2.25" fill="none" stroke-linecap="round" opacity="0.061"/><path d="M140.83,923.60 Q134.24,922.54 131.43,921.98 Q128.62,921.43 125.68,920.69 Q122.73,919.96 119.93,919.30 Q117.13,918.64 113.79,917.56 Q110.46,916.47 108.08,915.50 L105.69,914.53" stroke="#f3e6c4" stroke-width="2.25" fill="none" stroke-linecap="round" opacity="0.057"/><path d="M146.83,922.32 Q140.83,923.60 137.70,923.92 Q134.58,924.25 131.42,924.39 Q128.25,924.53 125.15,924.59 Q122.05,924.64 118.32,924.57 Q114.58,924.49 110.50,924.61 Q106.41,924.73 102.65,924.92 L98.88,925.11" stroke="#f3e6c4" stroke-width="2.25" fill="none" stroke-linecap="round" opacity="0.061"/><path d="M179.83,888.81 Q172.56,895.02 168.99,898.75 Q165.42,902.48 162.29,905.72 Q159.17,908.96 156.28,912.29 Q153.40,915.61 150.11,918.97 Q146.83,922.32 143.84,925.17 Q140.84,928.01 137.57,931.00 Q134.29,933.98 131.03,937.71 L127.76,941.43" stroke="#f3e6c4" stroke-width="2.35" fill="none" stroke-linecap="round" opacity="0.064"/><path d="M260.63,888.00 Q244.05,887.65 236.92,887.01 Q229.79,886.37 221.95,886.29 Q214.10,886.21 205.46,886.93 Q196.82,887.64 188.33,888.22 Q179.83,888.81 173.48,889.22 Q167.13,889.64 158.59,890.83 L150.06,892.02" stroke="#f3e6c4" stroke-width="2.85" fill="none" stroke-linecap="round" opacity="0.067"/><path d="M171.01,824.73 Q170.87,820.54 170.59,818.37 Q170.31,816.20 170.00,814.31 Q169.68,812.42 169.06,810.09 Q168.43,807.76 168.09,805.87 Q167.74,803.99 167.43,801.88 Q167.11,799.77 166.68,797.95 Q166.24,796.13 165.78,793.54 L165.32,790.95" stroke="#f3e6c4" stroke-width="2.25" fill="none" stroke-linecap="round" opacity="0.057"/><path d="M184.56,862.73 Q182.64,854.91 181.36,851.13 Q180.09,847.35 178.82,843.27 Q177.55,839.19 176.12,835.77 Q174.69,832.36 172.85,828.54 Q171.01,824.73 169.28,820.03 L167.55,815.34" stroke="#f3e6c4" stroke-width="2.25" fill="none" stroke-linecap="round" opacity="0.061"/><path d="M198.24,871.65 Q184.56,862.73 176.89,858.79 Q169.22,854.85 163.64,851.79 Q158.07,848.74 150.92,844.37 Q143.78,840.00 137.25,836.51 L130.72,833.01" stroke="#f3e6c4" stroke-width="2.35" fill="none" stroke-linecap="round" opacity="0.064"/><path d="M218.13,867.80 Q198.24,871.65 186.06,874.64 Q173.89,877.62 164.54,880.56 Q155.20,883.50 145.70,885.54 Q136.20,887.58 123.91,891.01 L111.63,894.44" stroke="#f3e6c4" stroke-width="2.85" fill="none" stroke-linecap="round" opacity="0.067"/><path d="M199.22,858.54 Q186.28,845.45 180.86,841.14 Q175.45,836.84 169.55,831.26 Q163.66,825.68 158.50,819.57 Q153.34,813.46 148.32,808.39 Q143.29,803.32 136.24,797.57 Q129.19,791.82 121.85,786.50 L114.50,781.19" stroke="#f3e6c4" stroke-width="2.85" fill="none" stroke-linecap="round" opacity="0.067"/><path d="M309.40,910.45 Q288.61,899.53 274.62,893.76 Q260.63,888.00 251.01,884.02 Q241.40,880.04 229.76,873.92 Q218.13,867.80 208.67,863.17 Q199.22,858.54 187.28,851.27 L175.33,844.00" stroke="#f3e6c4" stroke-width="3.55" fill="none" stroke-linecap="round" opacity="0.070"/><path d="M417.56,1053.52 Q395.93,1028.39 383.45,1013.71 Q370.96,999.03 361.30,985.72 Q351.63,972.42 339.47,954.51 Q327.31,936.60 318.35,923.52 Q309.40,910.45 298.30,896.76 L287.19,883.06" stroke="#f3e6c4" stroke-width="4.56" fill="none" stroke-linecap="round" opacity="0.074"/><path d="M498.84,1334.90 Q490.78,1276.93 482.53,1244.86 Q474.28,1212.79 466.62,1187.08 Q458.97,1161.37 449.14,1133.97 Q439.32,1106.57 428.44,1080.05 L417.56,1053.52" stroke="#f3e6c4" stroke-width="6.0" fill="none" stroke-linecap="round" opacity="0.077"/><path d="M863.08,633.63 Q862.15,629.04 861.89,626.52 Q861.63,624.01 861.56,621.54 Q861.49,619.06 861.39,615.89 Q861.28,612.72 861.32,609.57 Q861.37,606.42 861.37,603.83 Q861.37,601.23 861.63,598.19 Q861.89,595.15 862.42,592.24 L862.95,589.32" stroke="#f3e6c4" stroke-width="2.25" fill="none" stroke-linecap="round" opacity="0.057"/><path d="M906.50,693.24 Q897.54,681.42 893.54,675.64 Q889.54,669.87 885.57,663.43 Q881.59,657.00 876.94,651.07 Q872.29,645.15 867.69,639.39 L863.08,633.63" stroke="#f3e6c4" stroke-width="2.25" fill="none" stroke-linecap="round" opacity="0.061"/><path d="M909.02,709.40 Q906.50,693.24 905.75,685.63 Q904.99,678.02 904.01,669.20 Q903.02,660.37 902.13,653.06 Q901.24,645.76 900.58,637.03 Q899.92,628.31 899.17,620.35 L898.43,612.39" stroke="#f3e6c4" stroke-width="2.35" fill="none" stroke-linecap="round" opacity="0.064"/><path d="M926.51,738.06 Q909.02,709.40 899.72,695.29 Q890.42,681.17 881.36,663.11 Q872.30,645.06 865.85,631.31 L859.39,617.57" stroke="#f3e6c4" stroke-width="2.85" fill="none" stroke-linecap="round" opacity="0.067"/><path d="M961.89,592.55 Q968.14,578.20 971.81,571.68 Q975.48,565.15 978.74,560.12 Q981.99,555.08 985.76,550.08 Q989.53,545.08 994.04,540.22 L998.54,535.35" stroke="#f3e6c4" stroke-width="2.25" fill="none" stroke-linecap="round" opacity="0.061"/><path d="M967.19,628.36 Q964.99,609.99 963.44,601.27 Q961.89,592.55 960.71,583.38 Q959.52,574.22 957.67,565.21 Q955.81,556.20 954.47,548.46 L953.13,540.72" stroke="#f3e6c4" stroke-width="2.35" fill="none" stroke-linecap="round" opacity="0.064"/><path d="M922.35,718.13 Q931.50,700.12 934.64,692.44 Q937.78,684.76 941.20,678.10 Q944.62,671.45 948.78,662.61 Q952.94,653.77 956.72,647.60 Q960.49,641.42 963.84,634.89 Q967.19,628.36 971.25,619.98 Q975.30,611.59 979.25,604.87 L983.21,598.15" stroke="#f3e6c4" stroke-width="2.85" fill="none" stroke-linecap="round" opacity="0.067"/><path d="M926.34,657.34 Q937.25,642.44 942.34,633.89 Q947.42,625.33 953.62,616.49 Q959.81,607.65 964.83,601.36 Q969.84,595.07 976.48,587.02 L983.13,578.97" stroke="#f3e6c4" stroke-width="2.35" fill="none" stroke-linecap="round" opacity="0.064"/><path d="M915.92,696.78 Q920.10,676.51 923.22,666.93 Q926.34,657.34 928.98,647.86 Q931.62,638.39 934.80,627.99 Q937.98,617.60 941.11,609.42 Q944.23,601.23 946.40,593.14 Q948.56,585.05 949.96,576.93 L951.37,568.82" stroke="#f3e6c4" stroke-width="2.85" fill="none" stroke-linecap="round" opacity="0.067"/><path d="M942.99,818.44 Q938.21,793.09 935.17,779.39 Q932.13,765.69 929.32,751.87 Q926.51,738.06 924.43,728.10 Q922.35,718.13 919.14,707.46 Q915.92,696.78 910.92,684.83 Q905.91,672.88 899.90,659.76 Q893.90,646.65 889.76,635.83 L885.63,625.01" stroke="#f3e6c4" stroke-width="3.55" fill="none" stroke-linecap="round" opacity="0.070"/><path d="M1041.03,715.82 Q1066.39,715.29 1076.97,715.45 Q1087.56,715.60 1101.25,716.08 Q1114.93,716.55 1126.51,715.80 L1138.09,715.06" stroke="#f3e6c4" stroke-width="2.35" fill="none" stroke-linecap="round" opacity="0.064"/><path d="M1071.82,702.30 Q1097.47,707.48 1110.58,708.61 Q1123.70,709.73 1133.38,711.58 Q1143.06,713.42 1153.94,715.68 L1164.81,717.94" stroke="#f3e6c4" stroke-width="2.35" fill="none" stroke-linecap="round" opacity="0.064"/><path d="M1120.69,680.54 Q1144.27,681.68 1156.34,681.61 Q1168.41,681.54 1181.37,680.27 Q1194.33,679.00 1208.06,677.14 L1221.78,675.28" stroke="#f3e6c4" stroke-width="2.35" fill="none" stroke-linecap="round" opacity="0.064"/><path d="M1005.82,729.91 Q1024.55,723.07 1032.79,719.45 Q1041.03,715.82 1050.31,712.13 Q1059.59,708.44 1065.71,705.37 Q1071.82,702.30 1080.79,697.62 Q1089.76,692.94 1097.27,690.12 Q1104.78,687.29 1112.73,683.91 Q1120.69,680.54 1128.68,676.84 L1136.67,673.14" stroke="#f3e6c4" stroke-width="2.85" fill="none" stroke-linecap="round" opacity="0.067"/><path d="M962.58,765.20 Q1005.82,729.91 1025.26,711.64 Q1044.69,693.36 1066.13,674.39 Q1087.56,655.42 1109.43,638.97 L1131.30,622.52" stroke="#f3e6c4" stroke-width="3.55" fill="none" stroke-linecap="round" opacity="0.070"/><path d="M918.62,879.06 Q942.99,818.44 952.79,791.82 Q962.58,765.20 977.09,736.71 Q991.60,708.22 999.87,687.37 Q1008.15,666.52 1016.47,644.17 L1024.80,621.82" stroke="#f3e6c4" stroke-width="4.56" fill="none" stroke-linecap="round" opacity="0.074"/><path d="M736.40,752.95 Q721.47,747.17 714.05,745.00 Q706.63,742.83 697.65,740.43 Q688.67,738.03 678.92,736.35 Q669.17,734.68 661.35,733.05 L653.52,731.42" stroke="#f3e6c4" stroke-width="2.35" fill="none" stroke-linecap="round" opacity="0.064"/><path d="M600.64,781.16 Q599.31,792.81 598.10,798.36 Q596.90,803.90 595.20,809.05 Q593.50,814.19 591.84,820.38 L590.18,826.56" stroke="#f3e6c4" stroke-width="2.25" fill="none" stroke-linecap="round" opacity="0.057"/><path d="M588.47,806.33 Q591.55,809.65 593.07,811.46 Q594.58,813.28 595.91,815.18 Q597.24,817.08 598.61,819.59 Q599.99,822.11 600.94,824.20 Q601.89,826.30 602.67,828.51 L603.45,830.72" stroke="#f3e6c4" stroke-width="2.25" fill="none" stroke-linecap="round" opacity="0.054"/><path d="M589.88,791.64 Q589.21,799.97 588.84,803.15 Q588.47,806.33 588.23,810.93 Q587.98,815.54 588.06,819.22 Q588.14,822.89 588.56,826.04 Q588.98,829.18 589.33,833.27 L589.69,837.35" stroke="#f3e6c4" stroke-width="2.25" fill="none" stroke-linecap="round" opacity="0.057"/><path d="M625.22,752.85 Q618.85,760.40 616.02,764.16 Q613.18,767.92 610.39,771.05 Q607.60,774.17 604.12,777.67 Q600.64,781.16 597.91,784.00 Q595.19,786.84 592.53,789.24 Q589.88,791.64 587.46,794.22 Q585.03,796.80 582.56,799.76 L580.10,802.72" stroke="#f3e6c4" stroke-width="2.25" fill="none" stroke-linecap="round" opacity="0.061"/><path d="M657.15,747.93 Q642.47,750.75 633.84,751.80 Q625.22,752.85 616.66,754.35 Q608.11,755.84 599.67,757.65 Q591.22,759.46 583.91,760.38 Q576.60,761.31 569.46,763.03 L562.31,764.75" stroke="#f3e6c4" stroke-width="2.35" fill="none" stroke-linecap="round" opacity="0.064"/><path d="M788.22,759.07 Q772.29,756.92 764.53,755.76 Q756.77,754.60 746.59,753.77 Q736.40,752.95 726.50,751.90 Q716.59,750.85 705.49,750.56 Q694.39,750.28 686.12,749.30 Q677.85,748.33 667.50,748.13 L657.15,747.93" stroke="#f3e6c4" stroke-width="2.85" fill="none" stroke-linecap="round" opacity="0.067"/><path d="M893.79,800.71 Q862.43,788.90 845.71,782.64 Q829.00,776.38 808.61,767.72 Q788.22,759.07 770.51,751.76 Q752.81,744.44 733.42,735.75 L714.03,727.06" stroke="#f3e6c4" stroke-width="3.55" fill="none" stroke-linecap="round" opacity="0.070"/><path d="M688.08,661.39 Q678.54,645.56 673.65,635.23 Q668.77,624.91 664.04,612.83 Q659.31,600.75 655.48,587.95 Q651.65,575.16 647.81,563.03 Q643.98,550.90 641.03,542.20 L638.07,533.51" stroke="#f3e6c4" stroke-width="2.85" fill="none" stroke-linecap="round" opacity="0.067"/><path d="M796.35,701.26 Q741.45,683.16 714.76,672.28 Q688.08,661.39 667.28,654.39 Q646.47,647.40 622.68,642.37 L598.90,637.34" stroke="#f3e6c4" stroke-width="3.55" fill="none" stroke-linecap="round" opacity="0.070"/><path d="M758.64,589.41 Q764.86,575.94 768.35,567.77 Q771.83,559.60 775.26,550.96 Q778.69,542.32 782.53,533.09 Q786.37,523.86 789.29,516.66 Q792.21,509.46 794.40,503.05 Q796.60,496.63 799.40,489.91 Q802.20,483.20 806.22,475.03 L810.25,466.86" stroke="#f3e6c4" stroke-width="2.85" fill="none" stroke-linecap="round" opacity="0.067"/><path d="M717.70,505.57 Q718.47,494.25 718.36,488.83 Q718.25,483.40 718.78,476.37 Q719.30,469.33 719.41,462.30 Q719.52,455.26 719.08,447.21 Q718.64,439.16 718.01,433.75 Q717.39,428.33 716.95,422.89 L716.51,417.44" stroke="#f3e6c4" stroke-width="2.35" fill="none" stroke-linecap="round" opacity="0.064"/><path d="M756.52,551.74 Q736.28,527.28 726.99,516.42 Q717.70,505.57 706.97,493.09 Q696.24,480.60 685.00,469.75 L673.76,458.90" stroke="#f3e6c4" stroke-width="2.85" fill="none" stroke-linecap="round" opacity="0.067"/><path d="M767.16,651.06 Q762.28,620.48 760.46,604.94 Q758.64,589.41 757.58,570.58 Q756.52,551.74 757.57,532.05 Q758.63,512.36 758.94,496.90 L759.26,481.43" stroke="#f3e6c4" stroke-width="3.55" fill="none" stroke-linecap="round" opacity="0.070"/><path d="M914.71,821.16 Q893.79,800.71 879.56,787.10 Q865.33,773.48 851.01,758.83 Q836.70,744.19 825.37,733.37 Q814.04,722.55 805.19,711.90 Q796.35,701.26 788.53,689.21 Q780.71,677.16 773.94,664.11 Q767.16,651.06 760.70,637.47 L754.24,623.89" stroke="#f3e6c4" stroke-width="4.56" fill="none" stroke-linecap="round" opacity="0.074"/><path d="M907.69,774.70 Q856.52,718.92 831.84,692.80 Q807.16,666.68 777.57,640.87 Q747.98,615.05 722.79,593.42 L697.60,571.79" stroke="#f3e6c4" stroke-width="4.56" fill="none" stroke-linecap="round" opacity="0.074"/><path d="M918.58,983.87 Q917.72,926.49 918.17,902.77 Q918.62,879.06 916.67,850.11 Q914.71,821.16 911.20,797.93 Q907.69,774.70 905.43,744.43 Q903.16,714.17 902.30,687.83 Q901.44,661.49 901.83,627.97 L902.22,594.45" stroke="#f3e6c4" stroke-width="6.0" fill="none" stroke-linecap="round" opacity="0.077"/>
  </g>
  <g filter="url(#bloomTight)">
    <path d="M591.55,809.65 Q605.00,889.88 618.45,973.33" stroke="#f3e6c4" stroke-width="1.0" fill="none" stroke-linecap="round" opacity="0.056"/><path d="M515.25,705.58 Q577.18,659.17 639.11,627.62" stroke="#f3e6c4" stroke-width="1.0" fill="none" stroke-linecap="round" opacity="0.056"/><path d="M890.42,681.17 Q919.49,629.62 948.56,585.05" stroke="#f3e6c4" stroke-width="1.0" fill="none" stroke-linecap="round" opacity="0.056"/><path d="M756.22,515.47 Q731.14,572.23 706.06,635.00" stroke="#f3e6c4" stroke-width="1.0" fill="none" stroke-linecap="round" opacity="0.056"/><path d="M893.79,800.71 Q959.17,754.05 1024.55,723.07" stroke="#f3e6c4" stroke-width="1.0" fill="none" stroke-linecap="round" opacity="0.056"/><path d="M591.55,809.65 Q614.77,831.52 637.98,858.97" stroke="#f3e6c4" stroke-width="1.0" fill="none" stroke-linecap="round" opacity="0.056"/><path d="M788.22,759.07 Q762.82,752.79 737.43,752.61" stroke="#f3e6c4" stroke-width="1.0" fill="none" stroke-linecap="round" opacity="0.056"/><path d="M637.33,697.25 Q683.93,651.07 730.54,616.08" stroke="#f3e6c4" stroke-width="1.0" fill="none" stroke-linecap="round" opacity="0.056"/><path d="M253.95,1172.59 Q224.47,1126.50 195.00,1087.48" stroke="#f3e6c4" stroke-width="1.0" fill="none" stroke-linecap="round" opacity="0.056"/><path d="M172.56,895.02 Q158.17,865.78 143.78,840.00" stroke="#f3e6c4" stroke-width="1.0" fill="none" stroke-linecap="round" opacity="0.056"/><path d="M259.98,958.35 Q209.02,897.43 158.07,848.74" stroke="#f3e6c4" stroke-width="1.0" fill="none" stroke-linecap="round" opacity="0.056"/><path d="M170.87,820.54 Q144.00,866.37 117.13,918.64" stroke="#f3e6c4" stroke-width="1.0" fill="none" stroke-linecap="round" opacity="0.056"/><path d="M327.31,936.60 Q283.92,998.42 240.53,1070.65" stroke="#f3e6c4" stroke-width="1.0" fill="none" stroke-linecap="round" opacity="0.056"/><path d="M244.60,931.24 Q278.76,977.53 312.91,1032.03" stroke="#f3e6c4" stroke-width="1.0" fill="none" stroke-linecap="round" opacity="0.056"/><path d="M780.71,677.16 Q736.99,606.34 693.26,546.03" stroke="#f3e6c4" stroke-width="1.0" fill="none" stroke-linecap="round" opacity="0.056"/><path d="M189.59,1088.12 Q214.47,1006.96 239.34,931.77" stroke="#f3e6c4" stroke-width="1.0" fill="none" stroke-linecap="round" opacity="0.056"/><path d="M152.87,972.82 Q198.74,946.53 244.60,931.24" stroke="#f3e6c4" stroke-width="1.0" fill="none" stroke-linecap="round" opacity="0.056"/><path d="M753.87,464.52 Q755.19,507.97 756.52,551.74" stroke="#f3e6c4" stroke-width="1.0" fill="none" stroke-linecap="round" opacity="0.056"/><path d="M796.35,701.26 Q770.33,721.69 744.31,748.38" stroke="#f3e6c4" stroke-width="1.0" fill="none" stroke-linecap="round" opacity="0.056"/><path d="M639.11,627.62 Q697.81,582.63 756.52,551.74" stroke="#f3e6c4" stroke-width="1.0" fill="none" stroke-linecap="round" opacity="0.056"/><path d="M602.70,934.23 Q627.82,870.44 652.94,812.68" stroke="#f3e6c4" stroke-width="1.0" fill="none" stroke-linecap="round" opacity="0.056"/><path d="M502.07,774.99 Q575.14,760.63 648.21,763.81" stroke="#f3e6c4" stroke-width="1.0" fill="none" stroke-linecap="round" opacity="0.056"/><path d="M865.33,773.48 Q804.82,753.67 744.31,748.38" stroke="#f3e6c4" stroke-width="1.0" fill="none" stroke-linecap="round" opacity="0.056"/><path d="M300.74,1035.57 Q306.54,1014.06 312.33,993.93" stroke="#f3e6c4" stroke-width="1.0" fill="none" stroke-linecap="round" opacity="0.056"/><path d="M450.79,728.02 Q407.43,683.66 364.06,649.71" stroke="#f3e6c4" stroke-width="1.0" fill="none" stroke-linecap="round" opacity="0.056"/><path d="M140.27,975.43 Q142.02,907.50 143.78,840.00" stroke="#f3e6c4" stroke-width="1.0" fill="none" stroke-linecap="round" opacity="0.056"/><path d="M747.98,615.05 Q762.48,568.22 776.98,524.86" stroke="#f3e6c4" stroke-width="1.0" fill="none" stroke-linecap="round" opacity="0.056"/><path d="M552.47,794.08 Q545.90,842.85 539.34,893.19" stroke="#f3e6c4" stroke-width="1.0" fill="none" stroke-linecap="round" opacity="0.056"/><path d="M736.40,752.95 Q664.95,775.00 593.50,814.19" stroke="#f3e6c4" stroke-width="1.0" fill="none" stroke-linecap="round" opacity="0.056"/><path d="M509.92,756.40 Q512.52,719.51 515.11,683.23" stroke="#f3e6c4" stroke-width="1.0" fill="none" stroke-linecap="round" opacity="0.056"/><path d="M182.64,854.91 Q222.95,892.87 263.27,940.50" stroke="#f3e6c4" stroke-width="1.0" fill="none" stroke-linecap="round" opacity="0.056"/><path d="M255.73,947.57 Q213.30,878.96 170.87,820.54" stroke="#f3e6c4" stroke-width="1.0" fill="none" stroke-linecap="round" opacity="0.056"/><path d="M302.96,960.31 Q269.34,999.25 235.73,1046.26" stroke="#f3e6c4" stroke-width="1.0" fill="none" stroke-linecap="round" opacity="0.056"/><path d="M543.53,654.80 Q479.74,609.12 415.95,578.76" stroke="#f3e6c4" stroke-width="1.0" fill="none" stroke-linecap="round" opacity="0.056"/><path d="M567.13,921.70 Q608.48,846.28 649.82,780.78" stroke="#f3e6c4" stroke-width="1.0" fill="none" stroke-linecap="round" opacity="0.056"/><path d="M663.68,790.79 Q646.66,714.27 629.64,641.83" stroke="#f3e6c4" stroke-width="1.0" fill="none" stroke-linecap="round" opacity="0.056"/><path d="M167.11,799.77 Q153.97,860.10 140.83,923.60" stroke="#f3e6c4" stroke-width="1.0" fill="none" stroke-linecap="round" opacity="0.056"/><path d="M639.33,469.18 Q720.76,466.42 802.20,483.20" stroke="#f3e6c4" stroke-width="1.0" fill="none" stroke-linecap="round" opacity="0.056"/><path d="M967.19,628.36 Q946.85,680.77 926.51,738.06" stroke="#f3e6c4" stroke-width="1.0" fill="none" stroke-linecap="round" opacity="0.056"/><path d="M755.43,763.24 Q748.44,722.36 741.45,683.16" stroke="#f3e6c4" stroke-width="1.0" fill="none" stroke-linecap="round" opacity="0.056"/><path d="M540.20,812.44 Q591.15,761.67 642.11,723.13" stroke="#f3e6c4" stroke-width="1.0" fill="none" stroke-linecap="round" opacity="0.056"/><path d="M253.95,1172.59 Q241.88,1131.00 229.82,1092.30" stroke="#f3e6c4" stroke-width="1.0" fill="none" stroke-linecap="round" opacity="0.056"/><path d="M677.29,547.37 Q675.00,522.56 672.72,498.31" stroke="#f3e6c4" stroke-width="1.0" fill="none" stroke-linecap="round" opacity="0.056"/><path d="M677.29,547.37 Q717.96,524.98 758.63,512.36" stroke="#f3e6c4" stroke-width="1.0" fill="none" stroke-linecap="round" opacity="0.056"/><path d="M140.84,928.01 Q167.74,913.16 194.65,904.77" stroke="#f3e6c4" stroke-width="1.0" fill="none" stroke-linecap="round" opacity="0.056"/><path d="M648.21,763.81 Q657.30,685.38 666.38,609.13" stroke="#f3e6c4" stroke-width="1.0" fill="none" stroke-linecap="round" opacity="0.056"/><path d="M152.87,972.82 Q163.38,923.96 173.89,877.62" stroke="#f3e6c4" stroke-width="1.0" fill="none" stroke-linecap="round" opacity="0.056"/><path d="M252.22,1070.67 Q263.16,1050.40 274.10,1032.76" stroke="#f3e6c4" stroke-width="1.0" fill="none" stroke-linecap="round" opacity="0.056"/><path d="M263.89,965.68 Q231.06,914.72 198.24,871.65" stroke="#f3e6c4" stroke-width="1.0" fill="none" stroke-linecap="round" opacity="0.056"/><path d="M519.48,869.14 Q554.68,826.17 589.88,791.64" stroke="#f3e6c4" stroke-width="1.0" fill="none" stroke-linecap="round" opacity="0.056"/><path d="M693.26,546.03 Q663.29,478.43 633.32,418.03" stroke="#f3e6c4" stroke-width="1.0" fill="none" stroke-linecap="round" opacity="0.056"/><path d="M649.82,780.78 Q677.27,770.79 704.71,767.37" stroke="#f3e6c4" stroke-width="1.0" fill="none" stroke-linecap="round" opacity="0.056"/><path d="M285.11,943.01 Q225.27,915.56 165.42,902.48" stroke="#f3e6c4" stroke-width="1.0" fill="none" stroke-linecap="round" opacity="0.056"/><path d="M190.43,910.52 Q178.77,853.75 167.11,799.77" stroke="#f3e6c4" stroke-width="1.0" fill="none" stroke-linecap="round" opacity="0.056"/><path d="M652.94,812.68 Q625.11,846.14 597.29,886.29" stroke="#f3e6c4" stroke-width="1.0" fill="none" stroke-linecap="round" opacity="0.056"/><path d="M400.88,621.18 Q433.84,660.37 466.80,707.48" stroke="#f3e6c4" stroke-width="1.0" fill="none" stroke-linecap="round" opacity="0.056"/><path d="M167.74,803.99 Q145.24,859.27 122.73,919.96" stroke="#f3e6c4" stroke-width="1.0" fill="none" stroke-linecap="round" opacity="0.056"/><path d="M514.36,743.45 Q470.29,714.21 426.22,695.55" stroke="#f3e6c4" stroke-width="1.0" fill="none" stroke-linecap="round" opacity="0.056"/><path d="M706.06,635.00 Q743.38,651.60 780.71,677.16" stroke="#f3e6c4" stroke-width="1.0" fill="none" stroke-linecap="round" opacity="0.056"/><path d="M180.09,847.35 Q151.07,882.51 122.05,924.64" stroke="#f3e6c4" stroke-width="1.0" fill="none" stroke-linecap="round" opacity="0.056"/><path d="M619.62,471.13 Q649.24,543.80 678.85,623.57" stroke="#f3e6c4" stroke-width="1.0" fill="none" stroke-linecap="round" opacity="0.056"/><path d="M155.20,883.50 Q154.04,928.02 152.87,972.82" stroke="#f3e6c4" stroke-width="1.0" fill="none" stroke-linecap="round" opacity="0.056"/><path d="M224.36,1082.18 Q201.34,1004.97 178.32,933.28" stroke="#f3e6c4" stroke-width="1.0" fill="none" stroke-linecap="round" opacity="0.056"/><path d="M717.39,428.33 Q658.47,416.03 599.55,417.86" stroke="#f3e6c4" stroke-width="1.0" fill="none" stroke-linecap="round" opacity="0.056"/>
    <path d="M515.11,683.23 Q524.82,673.91 529.64,669.04 Q534.46,664.16 539.00,659.48 Q543.53,654.80 547.47,651.59 L551.41,648.37" stroke="#f3e6c4" stroke-width="0.52" fill="none" stroke-linecap="round" opacity="0.104"/><path d="M519.72,732.22 Q517.85,723.48 517.01,719.10 Q516.16,714.72 515.71,710.15 Q515.25,705.58 514.92,699.74 Q514.60,693.90 514.86,688.57 Q515.11,683.23 514.67,676.87 L514.22,670.51" stroke="#f3e6c4" stroke-width="0.52" fill="none" stroke-linecap="round" opacity="0.110"/><path d="M502.07,774.99 Q506.18,765.34 508.05,760.87 Q509.92,756.40 512.14,749.92 Q514.36,743.45 517.04,737.83 Q519.72,732.22 523.34,726.16 Q526.95,720.09 529.16,715.45 Q531.36,710.81 534.03,706.17 Q536.70,701.54 539.58,695.36 L542.45,689.19" stroke="#f3e6c4" stroke-width="0.58" fill="none" stroke-linecap="round" opacity="0.116"/><path d="M498.26,843.79 Q499.85,811.64 500.96,793.32 Q502.07,774.99 501.97,761.17 Q501.87,747.35 502.61,727.66 L503.35,707.96" stroke="#f3e6c4" stroke-width="0.82" fill="none" stroke-linecap="round" opacity="0.122"/><path d="M618.45,973.33 Q588.88,944.23 578.00,932.96 Q567.13,921.70 553.23,907.44 Q539.34,893.19 529.41,881.17 Q519.48,869.14 508.87,856.47 L498.26,843.79" stroke="#f3e6c4" stroke-width="1.18" fill="none" stroke-linecap="round" opacity="0.128"/><path d="M722.11,761.98 Q730.33,760.77 733.37,760.26 Q736.42,759.75 739.66,759.11 Q742.90,758.46 745.86,757.58 Q748.82,756.70 752.57,755.61 Q756.32,754.53 760.16,753.70 L764.01,752.87" stroke="#f3e6c4" stroke-width="0.52" fill="none" stroke-linecap="round" opacity="0.104"/><path d="M744.31,748.38 Q745.47,741.58 746.09,738.46 Q746.72,735.34 747.59,731.93 Q748.46,728.52 749.49,725.39 Q750.53,722.27 751.55,718.75 Q752.57,715.24 753.84,711.84 Q755.11,708.44 755.73,705.82 L756.36,703.20" stroke="#f3e6c4" stroke-width="0.52" fill="none" stroke-linecap="round" opacity="0.104"/><path d="M715.64,766.11 Q722.11,761.98 726.23,759.70 Q730.35,757.41 733.89,755.01 Q737.43,752.61 740.87,750.49 Q744.31,748.38 748.14,745.59 Q751.97,742.81 755.00,740.97 Q758.02,739.12 761.69,736.74 Q765.35,734.35 769.08,731.76 L772.81,729.18" stroke="#f3e6c4" stroke-width="0.52" fill="none" stroke-linecap="round" opacity="0.110"/><path d="M704.71,767.37 Q715.64,766.11 722.61,765.43 Q729.57,764.75 736.20,764.62 Q742.82,764.49 749.12,763.86 Q755.43,763.24 760.90,763.01 Q766.38,762.79 772.68,762.20 Q778.98,761.62 786.84,761.46 L794.70,761.31" stroke="#f3e6c4" stroke-width="0.58" fill="none" stroke-linecap="round" opacity="0.116"/><path d="M729.93,740.76 Q740.69,736.00 745.75,733.57 Q750.82,731.15 756.96,729.01 Q763.10,726.86 768.48,724.50 Q773.86,722.15 779.38,719.63 Q784.89,717.12 789.81,714.76 Q794.73,712.41 799.51,710.47 Q804.28,708.54 810.20,706.11 L816.13,703.68" stroke="#f3e6c4" stroke-width="0.58" fill="none" stroke-linecap="round" opacity="0.116"/><path d="M654.66,820.30 Q679.36,796.84 692.04,782.11 Q704.71,767.37 717.32,754.07 Q729.93,740.76 739.89,728.06 L749.85,715.36" stroke="#f3e6c4" stroke-width="0.82" fill="none" stroke-linecap="round" opacity="0.122"/><path d="M602.70,934.23 Q619.48,894.18 628.73,876.57 Q637.98,858.97 646.32,839.63 Q654.66,820.30 659.17,805.55 Q663.68,790.79 668.56,772.61 L673.44,754.43" stroke="#f3e6c4" stroke-width="1.18" fill="none" stroke-linecap="round" opacity="0.128"/><path d="M535.02,778.43 Q519.88,766.05 512.60,759.26 Q505.33,752.47 498.21,744.17 Q491.09,735.88 485.01,729.22 Q478.93,722.56 472.87,715.02 Q466.80,707.48 459.27,699.74 Q451.75,692.01 445.15,684.59 L438.55,677.16" stroke="#f3e6c4" stroke-width="0.82" fill="none" stroke-linecap="round" opacity="0.122"/><path d="M543.76,658.39 Q535.92,627.63 531.61,612.60 Q527.30,597.57 523.63,586.26 Q519.97,574.94 515.22,564.08 Q510.47,553.22 504.83,542.32 L499.19,531.41" stroke="#f3e6c4" stroke-width="0.82" fill="none" stroke-linecap="round" opacity="0.122"/><path d="M771.89,524.74 Q775.87,526.86 778.18,527.95 Q780.49,529.04 782.99,530.00 Q785.49,530.96 787.48,531.66 Q789.48,532.35 791.93,532.95 Q794.39,533.55 796.67,534.24 Q798.96,534.94 800.81,535.69 L802.67,536.43" stroke="#f3e6c4" stroke-width="0.52" fill="none" stroke-linecap="round" opacity="0.098"/><path d="M748.71,521.88 Q754.23,522.76 757.53,523.31 Q760.84,523.86 763.59,524.23 Q766.34,524.59 769.11,524.67 Q771.89,524.74 774.43,524.80 Q776.98,524.86 780.41,525.22 Q783.85,525.58 787.23,525.88 Q790.61,526.18 793.75,526.80 L796.89,527.42" stroke="#f3e6c4" stroke-width="0.52" fill="none" stroke-linecap="round" opacity="0.104"/><path d="M705.98,543.72 Q711.90,539.92 715.32,537.96 Q718.75,535.99 722.50,534.05 Q726.25,532.12 730.34,530.11 Q734.43,528.10 738.09,526.33 Q741.76,524.56 745.24,523.22 Q748.71,521.88 752.72,520.15 Q756.73,518.42 761.02,516.94 L765.30,515.46" stroke="#f3e6c4" stroke-width="0.52" fill="none" stroke-linecap="round" opacity="0.110"/><path d="M732.98,531.61 Q738.31,522.21 740.75,518.62 Q743.20,515.03 745.78,511.28 Q748.36,507.53 751.02,503.01 Q753.69,498.48 755.30,494.94 L756.91,491.40" stroke="#f3e6c4" stroke-width="0.52" fill="none" stroke-linecap="round" opacity="0.104"/><path d="M717.49,541.13 Q726.18,535.20 729.58,533.40 Q732.98,531.61 736.31,529.44 Q739.65,527.28 743.57,524.37 Q747.49,521.47 751.85,518.47 Q756.22,515.47 760.65,512.39 Q765.08,509.31 768.43,506.92 L771.78,504.53" stroke="#f3e6c4" stroke-width="0.52" fill="none" stroke-linecap="round" opacity="0.110"/><path d="M664.22,549.86 Q677.29,547.37 685.28,546.70 Q693.26,546.03 699.62,544.87 Q705.98,543.72 711.74,542.43 Q717.49,541.13 724.13,539.90 Q730.76,538.68 738.53,537.02 Q746.30,535.36 752.78,534.61 L759.25,533.86" stroke="#f3e6c4" stroke-width="0.58" fill="none" stroke-linecap="round" opacity="0.116"/><path d="M547.92,629.56 Q578.71,605.17 591.76,596.45 Q604.81,587.74 621.88,577.73 Q638.94,567.72 651.58,558.79 L664.22,549.86" stroke="#f3e6c4" stroke-width="0.82" fill="none" stroke-linecap="round" opacity="0.122"/><path d="M540.20,812.44 Q535.02,778.43 534.43,760.06 Q533.84,741.69 534.60,727.15 Q535.35,712.60 536.81,698.74 Q538.27,684.87 541.01,671.63 Q543.76,658.39 545.84,643.98 L547.92,629.56" stroke="#f3e6c4" stroke-width="1.18" fill="none" stroke-linecap="round" opacity="0.128"/><path d="M414.14,679.31 Q399.21,670.89 389.86,664.94 Q380.51,658.99 372.28,654.35 Q364.06,649.71 356.69,644.67 Q349.32,639.64 341.61,633.47 L333.89,627.30" stroke="#f3e6c4" stroke-width="0.58" fill="none" stroke-linecap="round" opacity="0.116"/><path d="M401.33,634.94 Q396.26,625.42 394.16,621.04 Q392.06,616.67 389.45,611.22 Q386.83,605.78 384.64,600.64 Q382.45,595.51 380.88,590.90 Q379.30,586.30 377.71,582.05 L376.13,577.79" stroke="#f3e6c4" stroke-width="0.52" fill="none" stroke-linecap="round" opacity="0.110"/><path d="M409.13,586.37 Q415.95,578.76 419.86,573.77 Q423.78,568.78 426.34,564.56 Q428.89,560.34 431.73,555.47 L434.56,550.60" stroke="#f3e6c4" stroke-width="0.52" fill="none" stroke-linecap="round" opacity="0.104"/><path d="M398.51,605.97 Q404.77,595.54 406.95,590.96 Q409.13,586.37 411.25,581.69 Q413.37,577.01 415.11,572.14 Q416.85,567.28 418.23,561.93 Q419.60,556.59 420.43,552.06 L421.27,547.53" stroke="#f3e6c4" stroke-width="0.52" fill="none" stroke-linecap="round" opacity="0.110"/><path d="M404.67,665.64 Q402.26,647.79 401.79,641.37 Q401.33,634.94 401.11,628.06 Q400.88,621.18 399.70,613.58 Q398.51,605.97 398.29,599.17 Q398.07,592.37 397.88,583.11 L397.69,573.85" stroke="#f3e6c4" stroke-width="0.58" fill="none" stroke-linecap="round" opacity="0.116"/><path d="M472.66,759.43 Q460.72,743.88 455.76,735.95 Q450.79,728.02 444.31,719.10 Q437.82,710.18 432.02,702.86 Q426.22,695.55 420.18,687.43 Q414.14,679.31 409.41,672.48 Q404.67,665.64 399.66,656.27 L394.65,646.89" stroke="#f3e6c4" stroke-width="0.82" fill="none" stroke-linecap="round" opacity="0.122"/><path d="M517.70,776.50 Q472.66,759.43 447.08,752.60 Q421.49,745.78 395.54,737.37 Q369.58,728.96 347.14,722.58 L324.69,716.21" stroke="#f3e6c4" stroke-width="1.18" fill="none" stroke-linecap="round" opacity="0.128"/><path d="M637.21,1024.03 Q618.45,973.33 610.57,953.78 Q602.70,934.23 595.15,915.97 Q587.60,897.71 576.85,878.60 Q566.09,859.49 553.15,835.96 Q540.20,812.44 528.95,794.47 L517.70,776.50" stroke="#f3e6c4" stroke-width="1.68" fill="none" stroke-linecap="round" opacity="0.134"/><path d="M638.01,969.75 Q617.81,927.61 607.55,906.95 Q597.29,886.29 585.19,863.90 Q573.09,841.51 562.78,817.80 Q552.47,794.08 542.64,765.54 L532.81,736.99" stroke="#f3e6c4" stroke-width="1.68" fill="none" stroke-linecap="round" opacity="0.134"/><path d="M634.62,666.17 Q615.94,639.66 604.38,624.46 Q592.83,609.25 585.61,597.51 Q578.40,585.77 571.71,573.08 L565.02,560.40" stroke="#f3e6c4" stroke-width="0.82" fill="none" stroke-linecap="round" opacity="0.122"/><path d="M652.94,812.68 Q649.82,780.78 647.23,764.91 Q644.64,749.03 643.38,736.08 Q642.11,723.13 639.72,710.19 Q637.33,697.25 635.97,681.71 Q634.62,666.17 632.13,654.00 Q629.64,641.83 625.30,626.34 L620.96,610.86" stroke="#f3e6c4" stroke-width="1.18" fill="none" stroke-linecap="round" opacity="0.128"/><path d="M683.29,650.14 Q706.06,635.00 718.30,625.54 Q730.54,616.08 740.00,609.78 Q749.47,603.47 760.05,595.70 Q770.63,587.93 779.25,580.77 Q787.87,573.60 800.69,564.09 Q813.50,554.57 824.60,547.50 L835.69,540.43" stroke="#f3e6c4" stroke-width="1.18" fill="none" stroke-linecap="round" opacity="0.128"/><path d="M638.17,864.59 Q652.94,812.68 659.76,785.17 Q666.59,757.65 671.00,729.18 Q675.41,700.70 679.35,675.42 Q683.29,650.14 687.83,624.82 L692.38,599.51" stroke="#f3e6c4" stroke-width="1.68" fill="none" stroke-linecap="round" opacity="0.134"/><path d="M648.21,763.81 Q639.33,713.70 635.89,693.34 Q632.45,672.99 627.84,650.28 Q623.23,627.58 615.77,601.91 L608.31,576.25" stroke="#f3e6c4" stroke-width="1.18" fill="none" stroke-linecap="round" opacity="0.128"/><path d="M717.95,457.30 Q731.67,450.50 741.29,446.59 Q750.90,442.68 759.78,438.69 Q768.67,434.70 776.44,431.33 Q784.21,427.96 792.00,424.11 L799.80,420.25" stroke="#f3e6c4" stroke-width="0.58" fill="none" stroke-linecap="round" opacity="0.116"/><path d="M665.44,581.21 Q674.79,564.31 680.82,552.27 Q686.85,540.23 690.75,530.03 Q694.64,519.82 697.62,509.74 Q700.60,499.65 704.18,489.26 Q707.77,478.86 712.86,468.08 L717.95,457.30" stroke="#f3e6c4" stroke-width="0.82" fill="none" stroke-linecap="round" opacity="0.122"/><path d="M599.99,427.46 Q599.55,417.86 599.01,413.63 Q598.48,409.40 597.62,405.36 Q596.75,401.32 595.99,396.79 Q595.23,392.27 594.56,388.75 Q593.88,385.22 592.67,380.75 Q591.45,376.27 590.83,371.97 Q590.21,367.67 589.31,362.81 L588.40,357.95" stroke="#f3e6c4" stroke-width="0.52" fill="none" stroke-linecap="round" opacity="0.110"/><path d="M639.33,469.18 Q627.44,457.04 620.25,449.79 Q613.06,442.55 606.52,435.00 Q599.99,427.46 594.00,421.68 Q588.02,415.90 581.42,408.53 L574.83,401.15" stroke="#f3e6c4" stroke-width="0.58" fill="none" stroke-linecap="round" opacity="0.116"/><path d="M669.77,522.00 Q654.61,497.53 646.97,483.35 Q639.33,469.18 628.83,453.68 Q618.33,438.17 610.53,423.06 L602.73,407.95" stroke="#f3e6c4" stroke-width="0.82" fill="none" stroke-linecap="round" opacity="0.122"/><path d="M672.55,660.76 Q668.13,636.17 667.26,622.65 Q666.38,609.13 665.91,595.17 Q665.44,581.21 665.91,567.99 Q666.39,554.76 668.08,538.38 Q669.77,522.00 671.25,510.16 Q672.72,498.31 673.65,484.89 L674.59,471.46" stroke="#f3e6c4" stroke-width="1.18" fill="none" stroke-linecap="round" opacity="0.128"/><path d="M615.53,494.48 Q619.62,471.13 622.34,458.61 Q625.06,446.09 629.19,432.06 Q633.32,418.03 637.10,407.21 Q640.87,396.40 645.10,386.07 L649.33,375.75" stroke="#f3e6c4" stroke-width="0.82" fill="none" stroke-linecap="round" opacity="0.122"/><path d="M678.85,623.57 Q658.17,582.76 647.66,563.21 Q637.16,543.65 626.35,519.07 Q615.53,494.48 603.60,473.53 L591.67,452.58" stroke="#f3e6c4" stroke-width="1.18" fill="none" stroke-linecap="round" opacity="0.128"/><path d="M633.38,810.86 Q648.21,763.81 655.51,737.34 Q662.81,710.87 667.68,685.81 Q672.55,660.76 675.70,642.17 Q678.85,623.57 683.22,602.59 Q687.59,581.60 693.60,555.18 L699.61,528.76" stroke="#f3e6c4" stroke-width="1.68" fill="none" stroke-linecap="round" opacity="0.134"/><path d="M656.67,574.24 Q680.73,549.40 692.41,535.38 Q704.10,521.37 715.39,506.81 Q726.68,492.25 740.27,478.39 Q753.87,464.52 769.06,451.00 L784.26,437.48" stroke="#f3e6c4" stroke-width="1.18" fill="none" stroke-linecap="round" opacity="0.128"/><path d="M626.81,678.88 Q639.11,627.62 647.89,600.93 Q656.67,574.24 662.98,550.47 Q669.29,526.70 679.00,499.27 Q688.72,471.85 700.71,445.02 L712.71,418.20" stroke="#f3e6c4" stroke-width="1.68" fill="none" stroke-linecap="round" opacity="0.134"/><path d="M640.05,1072.20 Q637.21,1024.03 637.61,996.89 Q638.01,969.75 639.02,947.03 Q640.04,924.31 639.10,894.45 Q638.17,864.59 635.77,837.72 Q633.38,810.86 633.50,777.72 Q633.61,744.58 630.21,711.73 L626.81,678.88" stroke="#f3e6c4" stroke-width="2.4" fill="none" stroke-linecap="round" opacity="0.140"/><path d="M643.82,1018.26 Q642.03,970.29 639.75,943.87 Q637.48,917.45 637.17,894.51 Q636.86,871.56 637.72,848.57 Q638.58,825.58 639.85,799.03 Q641.11,772.48 640.86,747.51 Q640.62,722.55 639.43,694.56 Q638.24,666.57 638.99,641.75 L639.75,616.92" stroke="#f3e6c4" stroke-width="2.4" fill="none" stroke-linecap="round" opacity="0.140"/><path d="M1654.31,1294.41 Q1630.28,1200.27 1611.75,1143.25 Q1593.22,1086.23 1577.74,1030.67 Q1562.26,975.10 1542.33,920.97 L1522.39,866.83" stroke="#f3e6c4" stroke-width="2.4" fill="none" stroke-linecap="round" opacity="0.140"/><path d="M264.05,1031.03 Q258.39,1033.96 255.30,1035.56 Q252.20,1037.15 249.58,1038.78 Q246.97,1040.41 244.28,1041.86 Q241.59,1043.31 238.66,1044.79 Q235.73,1046.26 232.09,1047.73 Q228.45,1049.21 225.04,1051.00 L221.63,1052.79" stroke="#f3e6c4" stroke-width="0.52" fill="none" stroke-linecap="round" opacity="0.110"/><path d="M300.74,1035.57 Q285.86,1034.32 279.98,1033.54 Q274.10,1032.76 269.07,1031.90 Q264.05,1031.03 258.64,1029.42 Q253.24,1027.82 246.98,1026.06 Q240.73,1024.31 234.11,1023.29 L227.49,1022.27" stroke="#f3e6c4" stroke-width="0.58" fill="none" stroke-linecap="round" opacity="0.116"/><path d="M256.65,1054.77 Q254.13,1063.14 253.18,1066.91 Q252.22,1070.67 251.49,1074.15 Q250.76,1077.63 249.99,1081.74 Q249.21,1085.86 248.89,1089.66 Q248.57,1093.45 248.76,1098.49 L248.95,1103.52" stroke="#f3e6c4" stroke-width="0.52" fill="none" stroke-linecap="round" opacity="0.110"/><path d="M204.30,1087.18 Q200.63,1085.84 198.80,1085.30 Q196.97,1084.75 195.26,1084.30 Q193.55,1083.85 192.02,1083.27 Q190.49,1082.70 189.07,1082.19 Q187.66,1081.68 185.89,1080.94 Q184.13,1080.19 182.75,1079.49 Q181.37,1078.79 179.93,1078.22 L178.49,1077.66" stroke="#f3e6c4" stroke-width="0.52" fill="none" stroke-linecap="round" opacity="0.098"/><path d="M219.50,1085.45 Q215.23,1085.91 212.33,1086.30 Q209.44,1086.69 206.87,1086.93 Q204.30,1087.18 201.96,1087.23 Q199.62,1087.29 197.31,1087.38 Q195.00,1087.48 192.30,1087.80 Q189.59,1088.12 187.10,1088.33 L184.61,1088.54" stroke="#f3e6c4" stroke-width="0.52" fill="none" stroke-linecap="round" opacity="0.104"/><path d="M246.79,1067.35 Q240.53,1070.65 237.41,1072.80 Q234.29,1074.94 232.07,1076.64 Q229.84,1078.34 227.10,1080.26 Q224.36,1082.18 221.93,1083.82 Q219.50,1085.45 217.29,1087.18 Q215.08,1088.90 212.69,1090.60 Q210.30,1092.30 207.01,1094.40 L203.72,1096.50" stroke="#f3e6c4" stroke-width="0.52" fill="none" stroke-linecap="round" opacity="0.110"/><path d="M229.87,1157.34 Q236.19,1162.28 239.07,1164.33 Q241.94,1166.39 244.94,1168.14 Q247.94,1169.88 250.94,1171.23 Q253.95,1172.59 258.06,1174.08 L262.16,1175.57" stroke="#f3e6c4" stroke-width="0.52" fill="none" stroke-linecap="round" opacity="0.104"/><path d="M222.66,1104.69 Q222.63,1111.74 222.54,1114.97 Q222.44,1118.21 222.54,1122.47 Q222.65,1126.74 223.27,1130.98 Q223.89,1135.22 224.70,1138.81 Q225.52,1142.40 226.71,1146.17 Q227.91,1149.95 228.89,1153.65 L229.87,1157.34" stroke="#f3e6c4" stroke-width="0.52" fill="none" stroke-linecap="round" opacity="0.110"/><path d="M266.78,1044.60 Q256.65,1054.77 251.72,1061.06 Q246.79,1067.35 242.15,1073.37 Q237.51,1079.38 233.66,1085.84 Q229.82,1092.30 226.24,1098.50 L222.66,1104.69" stroke="#f3e6c4" stroke-width="0.58" fill="none" stroke-linecap="round" opacity="0.116"/><path d="M372.04,1017.74 Q355.73,1022.69 348.93,1024.24 Q342.13,1025.80 334.07,1027.52 Q326.01,1029.25 319.46,1030.64 Q312.91,1032.03 306.83,1033.80 Q300.74,1035.57 292.33,1037.93 Q283.92,1040.29 275.35,1042.45 L266.78,1044.60" stroke="#f3e6c4" stroke-width="0.82" fill="none" stroke-linecap="round" opacity="0.122"/><path d="M294.07,951.13 Q279.55,946.54 271.41,943.52 Q263.27,940.50 253.94,935.87 Q244.60,931.24 237.27,928.09 L229.95,924.94" stroke="#f3e6c4" stroke-width="0.58" fill="none" stroke-linecap="round" opacity="0.116"/><path d="M352.03,1010.83 Q341.02,999.02 336.12,993.79 Q331.21,988.56 327.07,983.67 Q322.93,978.78 317.50,973.74 Q312.08,968.71 307.52,964.51 Q302.96,960.31 298.52,955.72 Q294.07,951.13 289.59,947.07 Q285.11,943.01 279.17,938.16 L273.22,933.31" stroke="#f3e6c4" stroke-width="0.82" fill="none" stroke-linecap="round" opacity="0.122"/><path d="M312.33,993.93 Q290.81,994.29 280.34,993.58 Q269.87,992.87 258.90,991.52 Q247.93,990.18 237.71,987.94 L227.50,985.71" stroke="#f3e6c4" stroke-width="0.58" fill="none" stroke-linecap="round" opacity="0.116"/><path d="M274.25,964.10 Q266.89,961.01 263.44,959.68 Q259.98,958.35 257.31,957.56 Q254.64,956.78 251.26,955.38 Q247.89,953.99 244.74,952.72 Q241.59,951.46 238.42,950.31 Q235.25,949.15 231.94,948.09 Q228.63,947.02 224.95,946.15 L221.27,945.27" stroke="#f3e6c4" stroke-width="0.52" fill="none" stroke-linecap="round" opacity="0.110"/><path d="M287.61,977.71 Q281.37,970.54 277.81,967.32 Q274.25,964.10 269.93,959.84 Q265.62,955.59 260.68,951.58 Q255.73,947.57 251.97,943.93 Q248.20,940.29 243.77,936.03 Q239.34,931.77 236.28,928.32 L233.23,924.87" stroke="#f3e6c4" stroke-width="0.58" fill="none" stroke-linecap="round" opacity="0.116"/><path d="M334.69,1006.78 Q312.33,993.93 299.97,985.82 Q287.61,977.71 275.75,971.70 Q263.89,965.68 251.73,958.21 L239.56,950.74" stroke="#f3e6c4" stroke-width="0.82" fill="none" stroke-linecap="round" opacity="0.122"/><path d="M395.93,1028.39 Q372.04,1017.74 362.03,1014.28 Q352.03,1010.83 343.36,1008.80 Q334.69,1006.78 323.41,1005.05 Q312.14,1003.31 299.25,1002.65 Q286.36,1002.00 273.27,1002.33 Q260.17,1002.66 249.71,1001.82 L239.25,1000.97" stroke="#f3e6c4" stroke-width="1.18" fill="none" stroke-linecap="round" opacity="0.128"/><path d="M156.51,959.25 Q154.51,966.45 153.69,969.63 Q152.87,972.82 152.42,975.46 Q151.97,978.11 151.28,981.65 L150.60,985.19" stroke="#f3e6c4" stroke-width="0.52" fill="none" stroke-linecap="round" opacity="0.098"/><path d="M141.26,972.66 Q140.27,975.43 139.95,976.70 Q139.63,977.98 139.41,979.70 Q139.19,981.42 138.75,983.16 Q138.31,984.89 137.94,986.58 Q137.58,988.26 137.33,989.78 Q137.09,991.30 136.87,993.17 Q136.65,995.05 136.39,996.43 L136.12,997.81" stroke="#f3e6c4" stroke-width="0.52" fill="none" stroke-linecap="round" opacity="0.098"/><path d="M170.92,946.96 Q164.19,952.23 160.35,955.74 Q156.51,959.25 152.27,962.77 Q148.02,966.30 144.64,969.48 L141.26,972.66" stroke="#f3e6c4" stroke-width="0.52" fill="none" stroke-linecap="round" opacity="0.104"/><path d="M198.86,899.58 Q194.65,904.77 192.54,907.65 Q190.43,910.52 188.73,913.55 Q187.02,916.58 185.35,919.80 Q183.68,923.01 182.39,925.66 Q181.10,928.32 179.71,930.80 Q178.32,933.28 176.44,936.56 Q174.55,939.85 172.74,943.40 L170.92,946.96" stroke="#f3e6c4" stroke-width="0.52" fill="none" stroke-linecap="round" opacity="0.110"/><path d="M244.05,887.65 Q230.20,893.07 222.60,895.08 Q215.01,897.09 206.93,898.34 Q198.86,899.58 190.80,901.11 Q182.74,902.64 175.42,904.24 L168.10,905.83" stroke="#f3e6c4" stroke-width="0.58" fill="none" stroke-linecap="round" opacity="0.116"/><path d="M159.17,908.96 Q151.72,911.03 147.49,911.97 Q143.26,912.92 138.90,913.78 Q134.54,914.64 131.22,915.01 Q127.90,915.39 123.82,915.46 Q119.74,915.52 115.82,915.81 Q111.91,916.09 108.25,916.09 L104.60,916.09" stroke="#f3e6c4" stroke-width="0.52" fill="none" stroke-linecap="round" opacity="0.110"/><path d="M140.83,923.60 Q134.24,922.54 131.43,921.98 Q128.62,921.43 125.68,920.69 Q122.73,919.96 119.93,919.30 Q117.13,918.64 113.79,917.56 Q110.46,916.47 108.08,915.50 L105.69,914.53" stroke="#f3e6c4" stroke-width="0.52" fill="none" stroke-linecap="round" opacity="0.104"/><path d="M146.83,922.32 Q140.83,923.60 137.70,923.92 Q134.58,924.25 131.42,924.39 Q128.25,924.53 125.15,924.59 Q122.05,924.64 118.32,924.57 Q114.58,924.49 110.50,924.61 Q106.41,924.73 102.65,924.92 L98.88,925.11" stroke="#f3e6c4" stroke-width="0.52" fill="none" stroke-linecap="round" opacity="0.110"/><path d="M179.83,888.81 Q172.56,895.02 168.99,898.75 Q165.42,902.48 162.29,905.72 Q159.17,908.96 156.28,912.29 Q153.40,915.61 150.11,918.97 Q146.83,922.32 143.84,925.17 Q140.84,928.01 137.57,931.00 Q134.29,933.98 131.03,937.71 L127.76,941.43" stroke="#f3e6c4" stroke-width="0.58" fill="none" stroke-linecap="round" opacity="0.116"/><path d="M260.63,888.00 Q244.05,887.65 236.92,887.01 Q229.79,886.37 221.95,886.29 Q214.10,886.21 205.46,886.93 Q196.82,887.64 188.33,888.22 Q179.83,888.81 173.48,889.22 Q167.13,889.64 158.59,890.83 L150.06,892.02" stroke="#f3e6c4" stroke-width="0.82" fill="none" stroke-linecap="round" opacity="0.122"/><path d="M171.01,824.73 Q170.87,820.54 170.59,818.37 Q170.31,816.20 170.00,814.31 Q169.68,812.42 169.06,810.09 Q168.43,807.76 168.09,805.87 Q167.74,803.99 167.43,801.88 Q167.11,799.77 166.68,797.95 Q166.24,796.13 165.78,793.54 L165.32,790.95" stroke="#f3e6c4" stroke-width="0.52" fill="none" stroke-linecap="round" opacity="0.104"/><path d="M184.56,862.73 Q182.64,854.91 181.36,851.13 Q180.09,847.35 178.82,843.27 Q177.55,839.19 176.12,835.77 Q174.69,832.36 172.85,828.54 Q171.01,824.73 169.28,820.03 L167.55,815.34" stroke="#f3e6c4" stroke-width="0.52" fill="none" stroke-linecap="round" opacity="0.110"/><path d="M198.24,871.65 Q184.56,862.73 176.89,858.79 Q169.22,854.85 163.64,851.79 Q158.07,848.74 150.92,844.37 Q143.78,840.00 137.25,836.51 L130.72,833.01" stroke="#f3e6c4" stroke-width="0.58" fill="none" stroke-linecap="round" opacity="0.116"/><path d="M218.13,867.80 Q198.24,871.65 186.06,874.64 Q173.89,877.62 164.54,880.56 Q155.20,883.50 145.70,885.54 Q136.20,887.58 123.91,891.01 L111.63,894.44" stroke="#f3e6c4" stroke-width="0.82" fill="none" stroke-linecap="round" opacity="0.122"/><path d="M199.22,858.54 Q186.28,845.45 180.86,841.14 Q175.45,836.84 169.55,831.26 Q163.66,825.68 158.50,819.57 Q153.34,813.46 148.32,808.39 Q143.29,803.32 136.24,797.57 Q129.19,791.82 121.85,786.50 L114.50,781.19" stroke="#f3e6c4" stroke-width="0.82" fill="none" stroke-linecap="round" opacity="0.122"/><path d="M309.40,910.45 Q288.61,899.53 274.62,893.76 Q260.63,888.00 251.01,884.02 Q241.40,880.04 229.76,873.92 Q218.13,867.80 208.67,863.17 Q199.22,858.54 187.28,851.27 L175.33,844.00" stroke="#f3e6c4" stroke-width="1.18" fill="none" stroke-linecap="round" opacity="0.128"/><path d="M417.56,1053.52 Q395.93,1028.39 383.45,1013.71 Q370.96,999.03 361.30,985.72 Q351.63,972.42 339.47,954.51 Q327.31,936.60 318.35,923.52 Q309.40,910.45 298.30,896.76 L287.19,883.06" stroke="#f3e6c4" stroke-width="1.68" fill="none" stroke-linecap="round" opacity="0.134"/><path d="M498.84,1334.90 Q490.78,1276.93 482.53,1244.86 Q474.28,1212.79 466.62,1187.08 Q458.97,1161.37 449.14,1133.97 Q439.32,1106.57 428.44,1080.05 L417.56,1053.52" stroke="#f3e6c4" stroke-width="2.4" fill="none" stroke-linecap="round" opacity="0.140"/><path d="M863.08,633.63 Q862.15,629.04 861.89,626.52 Q861.63,624.01 861.56,621.54 Q861.49,619.06 861.39,615.89 Q861.28,612.72 861.32,609.57 Q861.37,606.42 861.37,603.83 Q861.37,601.23 861.63,598.19 Q861.89,595.15 862.42,592.24 L862.95,589.32" stroke="#f3e6c4" stroke-width="0.52" fill="none" stroke-linecap="round" opacity="0.104"/><path d="M906.50,693.24 Q897.54,681.42 893.54,675.64 Q889.54,669.87 885.57,663.43 Q881.59,657.00 876.94,651.07 Q872.29,645.15 867.69,639.39 L863.08,633.63" stroke="#f3e6c4" stroke-width="0.52" fill="none" stroke-linecap="round" opacity="0.110"/><path d="M909.02,709.40 Q906.50,693.24 905.75,685.63 Q904.99,678.02 904.01,669.20 Q903.02,660.37 902.13,653.06 Q901.24,645.76 900.58,637.03 Q899.92,628.31 899.17,620.35 L898.43,612.39" stroke="#f3e6c4" stroke-width="0.58" fill="none" stroke-linecap="round" opacity="0.116"/><path d="M926.51,738.06 Q909.02,709.40 899.72,695.29 Q890.42,681.17 881.36,663.11 Q872.30,645.06 865.85,631.31 L859.39,617.57" stroke="#f3e6c4" stroke-width="0.82" fill="none" stroke-linecap="round" opacity="0.122"/><path d="M961.89,592.55 Q968.14,578.20 971.81,571.68 Q975.48,565.15 978.74,560.12 Q981.99,555.08 985.76,550.08 Q989.53,545.08 994.04,540.22 L998.54,535.35" stroke="#f3e6c4" stroke-width="0.52" fill="none" stroke-linecap="round" opacity="0.110"/><path d="M967.19,628.36 Q964.99,609.99 963.44,601.27 Q961.89,592.55 960.71,583.38 Q959.52,574.22 957.67,565.21 Q955.81,556.20 954.47,548.46 L953.13,540.72" stroke="#f3e6c4" stroke-width="0.58" fill="none" stroke-linecap="round" opacity="0.116"/><path d="M922.35,718.13 Q931.50,700.12 934.64,692.44 Q937.78,684.76 941.20,678.10 Q944.62,671.45 948.78,662.61 Q952.94,653.77 956.72,647.60 Q960.49,641.42 963.84,634.89 Q967.19,628.36 971.25,619.98 Q975.30,611.59 979.25,604.87 L983.21,598.15" stroke="#f3e6c4" stroke-width="0.82" fill="none" stroke-linecap="round" opacity="0.122"/><path d="M926.34,657.34 Q937.25,642.44 942.34,633.89 Q947.42,625.33 953.62,616.49 Q959.81,607.65 964.83,601.36 Q969.84,595.07 976.48,587.02 L983.13,578.97" stroke="#f3e6c4" stroke-width="0.58" fill="none" stroke-linecap="round" opacity="0.116"/><path d="M915.92,696.78 Q920.10,676.51 923.22,666.93 Q926.34,657.34 928.98,647.86 Q931.62,638.39 934.80,627.99 Q937.98,617.60 941.11,609.42 Q944.23,601.23 946.40,593.14 Q948.56,585.05 949.96,576.93 L951.37,568.82" stroke="#f3e6c4" stroke-width="0.82" fill="none" stroke-linecap="round" opacity="0.122"/><path d="M942.99,818.44 Q938.21,793.09 935.17,779.39 Q932.13,765.69 929.32,751.87 Q926.51,738.06 924.43,728.10 Q922.35,718.13 919.14,707.46 Q915.92,696.78 910.92,684.83 Q905.91,672.88 899.90,659.76 Q893.90,646.65 889.76,635.83 L885.63,625.01" stroke="#f3e6c4" stroke-width="1.18" fill="none" stroke-linecap="round" opacity="0.128"/><path d="M1041.03,715.82 Q1066.39,715.29 1076.97,715.45 Q1087.56,715.60 1101.25,716.08 Q1114.93,716.55 1126.51,715.80 L1138.09,715.06" stroke="#f3e6c4" stroke-width="0.58" fill="none" stroke-linecap="round" opacity="0.116"/><path d="M1071.82,702.30 Q1097.47,707.48 1110.58,708.61 Q1123.70,709.73 1133.38,711.58 Q1143.06,713.42 1153.94,715.68 L1164.81,717.94" stroke="#f3e6c4" stroke-width="0.58" fill="none" stroke-linecap="round" opacity="0.116"/><path d="M1120.69,680.54 Q1144.27,681.68 1156.34,681.61 Q1168.41,681.54 1181.37,680.27 Q1194.33,679.00 1208.06,677.14 L1221.78,675.28" stroke="#f3e6c4" stroke-width="0.58" fill="none" stroke-linecap="round" opacity="0.116"/><path d="M1005.82,729.91 Q1024.55,723.07 1032.79,719.45 Q1041.03,715.82 1050.31,712.13 Q1059.59,708.44 1065.71,705.37 Q1071.82,702.30 1080.79,697.62 Q1089.76,692.94 1097.27,690.12 Q1104.78,687.29 1112.73,683.91 Q1120.69,680.54 1128.68,676.84 L1136.67,673.14" stroke="#f3e6c4" stroke-width="0.82" fill="none" stroke-linecap="round" opacity="0.122"/><path d="M962.58,765.20 Q1005.82,729.91 1025.26,711.64 Q1044.69,693.36 1066.13,674.39 Q1087.56,655.42 1109.43,638.97 L1131.30,622.52" stroke="#f3e6c4" stroke-width="1.18" fill="none" stroke-linecap="round" opacity="0.128"/><path d="M918.62,879.06 Q942.99,818.44 952.79,791.82 Q962.58,765.20 977.09,736.71 Q991.60,708.22 999.87,687.37 Q1008.15,666.52 1016.47,644.17 L1024.80,621.82" stroke="#f3e6c4" stroke-width="1.68" fill="none" stroke-linecap="round" opacity="0.134"/><path d="M736.40,752.95 Q721.47,747.17 714.05,745.00 Q706.63,742.83 697.65,740.43 Q688.67,738.03 678.92,736.35 Q669.17,734.68 661.35,733.05 L653.52,731.42" stroke="#f3e6c4" stroke-width="0.58" fill="none" stroke-linecap="round" opacity="0.116"/><path d="M600.64,781.16 Q599.31,792.81 598.10,798.36 Q596.90,803.90 595.20,809.05 Q593.50,814.19 591.84,820.38 L590.18,826.56" stroke="#f3e6c4" stroke-width="0.52" fill="none" stroke-linecap="round" opacity="0.104"/><path d="M588.47,806.33 Q591.55,809.65 593.07,811.46 Q594.58,813.28 595.91,815.18 Q597.24,817.08 598.61,819.59 Q599.99,822.11 600.94,824.20 Q601.89,826.30 602.67,828.51 L603.45,830.72" stroke="#f3e6c4" stroke-width="0.52" fill="none" stroke-linecap="round" opacity="0.098"/><path d="M589.88,791.64 Q589.21,799.97 588.84,803.15 Q588.47,806.33 588.23,810.93 Q587.98,815.54 588.06,819.22 Q588.14,822.89 588.56,826.04 Q588.98,829.18 589.33,833.27 L589.69,837.35" stroke="#f3e6c4" stroke-width="0.52" fill="none" stroke-linecap="round" opacity="0.104"/><path d="M625.22,752.85 Q618.85,760.40 616.02,764.16 Q613.18,767.92 610.39,771.05 Q607.60,774.17 604.12,777.67 Q600.64,781.16 597.91,784.00 Q595.19,786.84 592.53,789.24 Q589.88,791.64 587.46,794.22 Q585.03,796.80 582.56,799.76 L580.10,802.72" stroke="#f3e6c4" stroke-width="0.52" fill="none" stroke-linecap="round" opacity="0.110"/><path d="M657.15,747.93 Q642.47,750.75 633.84,751.80 Q625.22,752.85 616.66,754.35 Q608.11,755.84 599.67,757.65 Q591.22,759.46 583.91,760.38 Q576.60,761.31 569.46,763.03 L562.31,764.75" stroke="#f3e6c4" stroke-width="0.58" fill="none" stroke-linecap="round" opacity="0.116"/><path d="M788.22,759.07 Q772.29,756.92 764.53,755.76 Q756.77,754.60 746.59,753.77 Q736.40,752.95 726.50,751.90 Q716.59,750.85 705.49,750.56 Q694.39,750.28 686.12,749.30 Q677.85,748.33 667.50,748.13 L657.15,747.93" stroke="#f3e6c4" stroke-width="0.82" fill="none" stroke-linecap="round" opacity="0.122"/><path d="M893.79,800.71 Q862.43,788.90 845.71,782.64 Q829.00,776.38 808.61,767.72 Q788.22,759.07 770.51,751.76 Q752.81,744.44 733.42,735.75 L714.03,727.06" stroke="#f3e6c4" stroke-width="1.18" fill="none" stroke-linecap="round" opacity="0.128"/><path d="M688.08,661.39 Q678.54,645.56 673.65,635.23 Q668.77,624.91 664.04,612.83 Q659.31,600.75 655.48,587.95 Q651.65,575.16 647.81,563.03 Q643.98,550.90 641.03,542.20 L638.07,533.51" stroke="#f3e6c4" stroke-width="0.82" fill="none" stroke-linecap="round" opacity="0.122"/><path d="M796.35,701.26 Q741.45,683.16 714.76,672.28 Q688.08,661.39 667.28,654.39 Q646.47,647.40 622.68,642.37 L598.90,637.34" stroke="#f3e6c4" stroke-width="1.18" fill="none" stroke-linecap="round" opacity="0.128"/><path d="M758.64,589.41 Q764.86,575.94 768.35,567.77 Q771.83,559.60 775.26,550.96 Q778.69,542.32 782.53,533.09 Q786.37,523.86 789.29,516.66 Q792.21,509.46 794.40,503.05 Q796.60,496.63 799.40,489.91 Q802.20,483.20 806.22,475.03 L810.25,466.86" stroke="#f3e6c4" stroke-width="0.82" fill="none" stroke-linecap="round" opacity="0.122"/><path d="M717.70,505.57 Q718.47,494.25 718.36,488.83 Q718.25,483.40 718.78,476.37 Q719.30,469.33 719.41,462.30 Q719.52,455.26 719.08,447.21 Q718.64,439.16 718.01,433.75 Q717.39,428.33 716.95,422.89 L716.51,417.44" stroke="#f3e6c4" stroke-width="0.58" fill="none" stroke-linecap="round" opacity="0.116"/><path d="M756.52,551.74 Q736.28,527.28 726.99,516.42 Q717.70,505.57 706.97,493.09 Q696.24,480.60 685.00,469.75 L673.76,458.90" stroke="#f3e6c4" stroke-width="0.82" fill="none" stroke-linecap="round" opacity="0.122"/><path d="M767.16,651.06 Q762.28,620.48 760.46,604.94 Q758.64,589.41 757.58,570.58 Q756.52,551.74 757.57,532.05 Q758.63,512.36 758.94,496.90 L759.26,481.43" stroke="#f3e6c4" stroke-width="1.18" fill="none" stroke-linecap="round" opacity="0.128"/><path d="M914.71,821.16 Q893.79,800.71 879.56,787.10 Q865.33,773.48 851.01,758.83 Q836.70,744.19 825.37,733.37 Q814.04,722.55 805.19,711.90 Q796.35,701.26 788.53,689.21 Q780.71,677.16 773.94,664.11 Q767.16,651.06 760.70,637.47 L754.24,623.89" stroke="#f3e6c4" stroke-width="1.68" fill="none" stroke-linecap="round" opacity="0.134"/><path d="M907.69,774.70 Q856.52,718.92 831.84,692.80 Q807.16,666.68 777.57,640.87 Q747.98,615.05 722.79,593.42 L697.60,571.79" stroke="#f3e6c4" stroke-width="1.68" fill="none" stroke-linecap="round" opacity="0.134"/><path d="M918.58,983.87 Q917.72,926.49 918.17,902.77 Q918.62,879.06 916.67,850.11 Q914.71,821.16 911.20,797.93 Q907.69,774.70 905.43,744.43 Q903.16,714.17 902.30,687.83 Q901.44,661.49 901.83,627.97 L902.22,594.45" stroke="#f3e6c4" stroke-width="2.4" fill="none" stroke-linecap="round" opacity="0.140"/>
  </g>
</svg>